<svg width="51" height="51" viewBox="0 0 51 51" fill="none" xmlns="http://www.w3.org/2000/svg">
<g clip-path="url(#clip0_5531_10111)">
<path fill-rule="evenodd" clip-rule="evenodd" d="M48.2435 21.3029C46.5756 21.3029 45.5324 20.2204 45.1132 19.2077C44.6936 18.195 44.6655 16.693 45.8454 15.5131C46.5972 14.7613 46.5972 13.5375 45.8454 12.7852L43.2232 10.1635C42.4714 9.41222 41.2475 9.41222 40.4962 10.1635C39.3158 11.3439 37.8138 11.3157 36.8016 10.8961C35.7875 10.4765 34.7059 9.43375 34.7059 7.76589C34.7059 6.70253 33.8409 5.83712 32.7776 5.83712H29.0704C28.0071 5.83712 27.1416 6.70253 27.1416 7.76589C27.1416 8.72789 26.7635 9.6063 26.0773 10.239C25.7892 10.5052 25.7705 10.955 26.0367 11.2436C26.1645 11.3821 26.3422 11.4642 26.5305 11.4718C26.7189 11.4794 26.9026 11.412 27.0412 11.2842C28.0233 10.3791 28.5633 9.12886 28.5633 7.76589C28.5633 7.69932 28.5765 7.6334 28.6019 7.57191C28.6274 7.51041 28.6648 7.45454 28.7119 7.4075C28.759 7.36045 28.8149 7.32314 28.8764 7.29771C28.9379 7.27228 29.0039 7.25923 29.0704 7.2593H32.7776C32.9119 7.25946 33.0406 7.31288 33.1356 7.40785C33.2306 7.50282 33.284 7.63158 33.2842 7.76589C33.2842 9.74727 34.423 11.4506 36.2567 12.2095C38.09 12.9688 40.1 12.5708 41.5017 11.169C41.6986 10.9721 42.0207 10.9721 42.2185 11.169L44.8398 13.7909C44.9344 13.8862 44.9875 14.015 44.9875 14.1493C44.9875 14.2836 44.9344 14.4124 44.8398 14.5077C43.4382 15.9094 43.0391 17.9181 43.7989 19.7523C44.5588 21.5855 46.2616 22.7248 48.2434 22.7248C48.5225 22.7248 48.75 22.9528 48.75 23.2319V26.9391C48.75 27.2182 48.5225 27.4462 48.2434 27.4462C46.2615 27.4462 44.5588 28.5855 43.7989 30.4187C43.039 32.2529 43.4381 34.2615 44.8398 35.6632C44.887 35.7102 44.9243 35.7661 44.9497 35.8276C44.9752 35.8891 44.9882 35.955 44.988 36.0216C44.9882 36.0882 44.9752 36.1541 44.9498 36.2156C44.9244 36.2771 44.887 36.333 44.8398 36.38L42.2185 39.0017C42.1233 39.0966 41.9945 39.1498 41.8601 39.1499C41.7935 39.1501 41.7276 39.1371 41.6661 39.1117C41.6045 39.0863 41.5487 39.0489 41.5017 39.0017C40.0981 37.5987 38.088 37.1986 36.2557 37.9585C34.4229 38.717 33.2841 40.4212 33.2841 42.4059C33.2841 42.685 33.0566 42.9116 32.7775 42.9116H29.0703C29.0038 42.9117 28.9379 42.8987 28.8765 42.8734C28.815 42.848 28.7591 42.8108 28.712 42.7638C28.6649 42.7169 28.6275 42.6611 28.602 42.5997C28.5765 42.5383 28.5633 42.4724 28.5632 42.4059C28.5632 41.042 28.0232 39.7918 27.0411 38.8867C26.9025 38.7589 26.7188 38.6915 26.5304 38.6991C26.3421 38.7067 26.1644 38.7888 26.0366 38.9273C25.9088 39.0659 25.8413 39.2496 25.849 39.438C25.8566 39.6263 25.9387 39.804 26.0772 39.9319C26.7634 40.5646 27.1415 41.443 27.1415 42.4059C27.1415 43.4693 28.007 44.3338 29.0703 44.3338H32.7775C33.8408 44.3338 34.7058 43.4693 34.7058 42.4059C34.7058 40.7342 35.7874 39.6915 36.799 39.2718C37.8117 38.8521 39.3138 38.8259 40.4961 40.0073C41.2474 40.7586 42.4713 40.7586 43.224 40.0073L45.8453 37.3855C46.209 37.0209 46.4102 36.5367 46.4102 36.0215C46.4102 35.5068 46.209 35.0222 45.8453 34.6576C44.6654 33.4787 44.6936 31.9756 45.1131 30.963C45.5323 29.9503 46.5755 28.8678 48.2434 28.8678C49.3068 28.8678 50.1718 28.0023 50.1718 26.939V23.2317C50.1719 22.1684 49.3069 21.3029 48.2435 21.3029ZM30.9238 16.8889C35.4424 16.8889 39.1198 20.5655 39.1198 25.085C39.1198 29.6051 35.4424 33.2811 30.9238 33.2811C29.1526 33.2811 27.5125 32.7148 26.1705 31.7562C27.8384 30.0252 28.8664 27.673 28.8664 25.0851C28.8664 22.4978 27.8385 20.1455 26.1705 18.4145C27.5125 17.4558 29.1527 16.8889 30.9238 16.8889ZM25.0861 19.3401C26.5433 20.8196 27.4441 22.8488 27.4441 25.0849C27.4441 27.3215 26.5433 29.3508 25.0861 30.8303C23.6285 29.3508 22.7277 27.3215 22.7277 25.0849C22.7278 22.8488 23.6285 20.8197 25.0861 19.3401ZM19.2481 33.281C21.0193 33.281 22.6599 32.7147 24.0024 31.7561C22.3335 30.0251 21.306 27.6728 21.306 25.085C21.306 22.4977 22.3335 20.1454 24.0014 18.4144C22.6599 17.4558 21.0193 16.8889 19.2481 16.8889C14.73 16.8889 11.0536 20.5655 11.0536 25.085C11.0535 29.6051 14.73 33.281 19.2481 33.281ZM19.2481 15.4672C21.4422 15.4672 23.4661 16.2064 25.0862 17.4466C26.7059 16.2064 28.7303 15.4672 30.9239 15.4672C36.2266 15.4672 40.5417 19.7816 40.5417 25.0849C40.5417 30.3887 36.2267 34.7033 30.9239 34.7033C28.7302 34.7033 26.7059 33.9639 25.0862 32.7239C23.4661 33.964 21.4422 34.7033 19.2481 34.7033C13.9458 34.7033 9.63127 30.3888 9.63127 25.0849C9.63127 19.7816 13.9458 15.4672 19.2481 15.4672ZM24.1356 38.927C23.8694 38.6388 23.4192 38.6202 23.1311 38.8864C22.15 39.7915 21.6084 41.0417 21.6084 42.4056C21.6084 42.5397 21.5551 42.6683 21.4603 42.7631C21.3654 42.8579 21.2369 42.9112 21.1028 42.9113H17.3947C17.2605 42.9114 17.1317 42.8581 17.0367 42.7633C16.9417 42.6685 16.8883 42.5398 16.8881 42.4056C16.8881 40.4209 15.7493 38.7167 13.9175 37.9582C12.0843 37.1983 10.0742 37.5983 8.67059 39.0014C8.62357 39.0485 8.56769 39.0859 8.50618 39.1113C8.44467 39.1367 8.37874 39.1498 8.31218 39.1496C8.24575 39.1498 8.17996 39.1368 8.11859 39.1113C8.05723 39.0859 8.00152 39.0485 7.95468 39.0014L5.33203 36.3798C5.28489 36.3328 5.24752 36.2769 5.22209 36.2154C5.19666 36.1539 5.18366 36.088 5.18385 36.0214C5.1837 35.9548 5.19671 35.8889 5.22214 35.8274C5.24758 35.7659 5.28492 35.71 5.33203 35.663C6.7337 34.2613 7.13273 32.2527 6.37345 30.4185C5.61356 28.5852 3.91036 27.446 1.92888 27.446C1.79449 27.4456 1.66571 27.3921 1.57069 27.2971C1.47568 27.202 1.42217 27.0732 1.42188 26.9389V23.2317C1.42217 23.0973 1.47568 22.9685 1.57069 22.8735C1.66571 22.7785 1.79449 22.7249 1.92888 22.7246C3.91026 22.7246 5.61346 21.5853 6.37345 19.7521C7.13284 17.9179 6.7338 15.9093 5.33203 14.5075C5.23743 14.4122 5.18433 14.2834 5.18433 14.1491C5.18433 14.0148 5.23743 13.886 5.33203 13.7907L7.95478 11.1688C8.0499 11.0742 8.17859 11.0211 8.31274 11.0211C8.44689 11.0211 8.57558 11.0742 8.6707 11.1688C10.072 12.5705 12.082 12.9686 13.9153 12.2103C15.7494 11.4504 16.8883 9.74717 16.8883 7.76569C16.8884 7.63135 16.9418 7.50252 17.0368 7.40753C17.1318 7.31254 17.2606 7.25915 17.3949 7.25909H21.103C21.2372 7.25928 21.3658 7.31274 21.4606 7.40773C21.5555 7.50273 21.6087 7.63147 21.6086 7.76569C21.6086 9.12866 22.1501 10.3789 23.1313 11.284C23.4194 11.5502 23.8696 11.5316 24.1358 11.2434C24.4015 10.9547 24.3843 10.505 24.0952 10.2388C23.4094 9.6061 23.0304 8.72769 23.0304 7.76569C23.0304 6.70233 22.1663 5.83691 21.1031 5.83691H17.395C16.3317 5.83691 15.4662 6.70233 15.4662 7.76569C15.4662 9.43355 14.3847 10.4764 13.372 10.8959C12.3584 11.3155 10.8563 11.3437 9.67637 10.1633C8.9246 9.41202 7.70077 9.41202 6.94941 10.1633L4.32717 12.785C3.57541 13.5373 3.57541 14.7612 4.32717 15.5129C5.50712 16.6928 5.47991 18.1949 5.05934 19.2075C4.63978 20.2202 3.59745 21.3026 1.92908 21.3026C0.865516 21.3029 0 22.1684 0 23.2317V26.9389C0 28.0022 0.865516 28.8677 1.92877 28.8677C3.59714 28.8677 4.63948 29.9502 5.05903 30.9629C5.4796 31.9755 5.50682 33.4786 4.32687 34.6575C3.96317 35.0221 3.76198 35.5068 3.76198 36.0214C3.76198 36.5366 3.96317 37.0207 4.32687 37.3854L6.94911 40.0072C7.3123 40.3714 7.79695 40.5716 8.31208 40.5716C8.82771 40.5716 9.31237 40.3714 9.67596 40.0072C10.8578 38.8258 12.3599 38.852 13.3725 39.2717C14.3843 39.6913 15.4657 40.7341 15.4657 42.4058C15.4657 43.4692 16.3311 44.3337 17.3945 44.3337H21.1026C22.1659 44.3337 23.0299 43.4692 23.0299 42.4058C23.0299 41.4428 23.4089 40.5645 24.0947 39.9317C24.3841 39.6653 24.4013 39.2156 24.1356 38.927Z" fill="#9D0A0E"/>
</g>
<defs>
<clipPath id="clip0_5531_10111">
<rect width="50.1718" height="50.17" fill="white"/>
</clipPath>
</defs>
</svg>
