<svg width="50" height="50" viewBox="0 0 50 50" fill="none" xmlns="http://www.w3.org/2000/svg">
<g clip-path="url(#clip0_5985_8823)">
<path d="M22.8518 45.1928C22.8267 45.3723 22.7314 45.5346 22.5867 45.6439C22.4421 45.7532 22.2599 45.8005 22.0804 45.7755C17.5413 45.1433 13.4211 43.0883 10.1653 39.833C6.90938 36.5774 4.8542 32.4576 4.22207 27.9188C4.20967 27.8298 4.21491 27.7394 4.23748 27.6525C4.26006 27.5656 4.29953 27.484 4.35364 27.4124C4.40776 27.3408 4.47545 27.2805 4.55286 27.235C4.63027 27.1896 4.71587 27.1598 4.80479 27.1475C4.89369 27.1351 4.98417 27.1403 5.07104 27.1629C5.15792 27.1855 5.2395 27.225 5.31112 27.2791C5.38275 27.3332 5.44301 27.4009 5.48847 27.4783C5.53393 27.5557 5.5637 27.6413 5.57607 27.7302C6.77764 36.3561 13.642 43.2197 22.269 44.4215C22.358 44.4338 22.4436 44.4636 22.521 44.5091C22.5984 44.5545 22.6661 44.6148 22.7202 44.6864C22.7743 44.758 22.8138 44.8396 22.8363 44.9265C22.8589 45.0134 22.8642 45.1039 22.8518 45.1928ZM45.1936 27.1475C45.1046 27.135 45.0141 27.1402 44.9272 27.1627C44.8403 27.1852 44.7587 27.2247 44.687 27.2788C44.6154 27.333 44.5551 27.4007 44.5097 27.4781C44.4643 27.5556 44.4346 27.6412 44.4223 27.7302C43.2205 36.3572 36.3568 43.2216 27.731 44.4231C27.642 44.4355 27.5564 44.4653 27.479 44.5107C27.4016 44.5562 27.3339 44.6164 27.2798 44.6881C27.2257 44.7597 27.1862 44.8413 27.1637 44.9282C27.1411 45.015 27.1358 45.1055 27.1482 45.1944C27.1733 45.374 27.2686 45.5363 27.4133 45.6455C27.5579 45.7548 27.7401 45.8022 27.9196 45.7771C32.4585 45.1449 36.5783 43.0897 39.8338 39.834C43.0892 36.5781 45.1441 32.458 45.7764 27.9188C45.7888 27.8299 45.7835 27.7394 45.7609 27.6525C45.7383 27.5657 45.6989 27.4841 45.6447 27.4124C45.5906 27.3408 45.5229 27.2805 45.4455 27.2351C45.3681 27.1896 45.2825 27.1598 45.1936 27.1475ZM27.731 5.57695C36.358 6.77871 43.2224 13.6424 44.4239 22.2683C44.4498 22.4471 44.5454 22.6084 44.6898 22.717C44.8343 22.8255 45.0158 22.8724 45.1948 22.8475C45.3737 22.8226 45.5355 22.7278 45.6448 22.584C45.7541 22.4401 45.802 22.2588 45.778 22.0797C45.1458 17.5408 43.0906 13.4211 39.8348 10.1655C36.579 6.91016 32.4589 4.85518 27.9197 4.22295C27.8308 4.21052 27.7403 4.21574 27.6534 4.23831C27.5665 4.26087 27.4849 4.30034 27.4133 4.35446C27.3417 4.40857 27.2814 4.47628 27.236 4.5537C27.1905 4.63112 27.1608 4.71674 27.1484 4.80566C27.136 4.89456 27.1412 4.98504 27.1637 5.07193C27.1863 5.15882 27.2257 5.24041 27.2798 5.31204C27.3339 5.38367 27.4016 5.44394 27.479 5.48939C27.5564 5.53485 27.642 5.5646 27.731 5.57695ZM4.80479 22.851C4.98435 22.876 5.1665 22.8287 5.31116 22.7194C5.45582 22.6101 5.55115 22.4478 5.57617 22.2683C6.77783 13.6424 13.6422 6.77871 22.2691 5.57695C22.3581 5.56459 22.4437 5.53483 22.5211 5.48937C22.5985 5.44391 22.6662 5.38365 22.7203 5.31203C22.7744 5.2404 22.8139 5.15882 22.8364 5.07193C22.859 4.98505 22.8643 4.89457 22.8519 4.80566C22.8395 4.71675 22.8097 4.63115 22.7643 4.55374C22.7188 4.47633 22.6586 4.40864 22.5869 4.35452C22.5153 4.30041 22.4337 4.26094 22.3468 4.23836C22.26 4.21579 22.1695 4.21055 22.0806 4.22295C17.5415 4.85518 13.4213 6.91016 10.1655 10.1654C6.90957 13.421 4.85439 17.5408 4.22227 22.0797C4.20982 22.1686 4.21503 22.2591 4.23757 22.346C4.26012 22.4328 4.29957 22.5144 4.35367 22.5861C4.40777 22.6577 4.47546 22.718 4.55286 22.7634C4.63027 22.8089 4.71587 22.8386 4.80479 22.851ZM20.9315 18.8448C20.9315 16.6016 22.7567 14.7766 25.0003 14.7766C27.2437 14.7766 29.0689 16.6016 29.0689 18.8448C29.0689 21.0884 27.2437 22.9136 25.0003 22.9136C22.7567 22.9136 20.9315 21.0883 20.9315 18.8448ZM22.2987 18.8448C22.2987 20.3345 23.5106 21.5464 25.0003 21.5464C26.4899 21.5464 27.7018 20.3345 27.7018 18.8448C27.7018 17.3555 26.4899 16.1437 25.0003 16.1437C23.5106 16.1437 22.2987 17.3555 22.2987 18.8448ZM33.0078 31.5046C33.0078 34.0725 28.9858 35.2218 25 35.2218C23.0026 35.2218 21.1306 34.9375 19.7284 34.4213C17.4669 33.5888 16.9922 32.3756 16.9922 31.5046C16.9922 27.0893 20.5846 23.4971 25.0003 23.4971C29.4156 23.4971 33.0078 27.0894 33.0078 31.5046ZM31.6406 31.5046C31.6406 27.8431 28.6618 24.8643 25.0003 24.8643C21.3385 24.8643 18.3594 27.8431 18.3594 31.5046C18.3594 32.8224 21.2763 33.8546 25 33.8546C28.7237 33.8546 31.6406 32.8225 31.6406 31.5046ZM49.1211 25C49.1211 25.1813 49.0491 25.3552 48.9209 25.4834C48.7927 25.6116 48.6188 25.6836 48.4375 25.6836H40.2979C39.9485 33.5846 33.5847 39.9482 25.6836 40.2972V48.4375C25.6836 48.6188 25.6116 48.7927 25.4834 48.9209C25.3552 49.0491 25.1813 49.1211 25 49.1211C24.8187 49.1211 24.6448 49.0491 24.5166 48.9209C24.3884 48.7927 24.3164 48.6188 24.3164 48.4375V40.2972C16.4153 39.9482 10.0515 33.5846 9.70215 25.6836H1.5625C1.3812 25.6836 1.20732 25.6116 1.07913 25.4834C0.950928 25.3552 0.878906 25.1813 0.878906 25C0.878906 24.8187 0.950928 24.6448 1.07913 24.5166C1.20732 24.3884 1.3812 24.3164 1.5625 24.3164H9.70215C10.0507 16.4146 16.4148 10.0502 24.3164 9.70127V1.5625C24.3164 1.3812 24.3884 1.20732 24.5166 1.07913C24.6448 0.950928 24.8187 0.878906 25 0.878906C25.1813 0.878906 25.3552 0.950928 25.4834 1.07913C25.6116 1.20732 25.6836 1.3812 25.6836 1.5625V9.70127C33.5853 10.0502 39.9494 16.4146 40.2979 24.3164H48.4375C48.6188 24.3164 48.7927 24.3884 48.9209 24.5166C49.0491 24.6448 49.1211 24.8187 49.1211 25ZM38.9467 24.9992C38.9467 17.3094 32.691 11.0532 25.0015 11.0524L24.9999 11.0525L24.9983 11.0524C17.3088 11.0532 11.0531 17.3094 11.0531 24.9992C11.0531 32.6895 17.3096 38.9459 24.9998 38.9459C32.69 38.9459 38.9467 32.6895 38.9467 24.9992Z" fill="white"/>
</g>
<defs>
<clipPath id="clip0_5985_8823">
<rect width="50" height="50" fill="white"/>
</clipPath>
</defs>
</svg>
