<svg width="50" height="50" viewBox="0 0 50 50" fill="none" xmlns="http://www.w3.org/2000/svg">
<g clip-path="url(#clip0_5985_8817)">
<path d="M47.1922 22.3301C46.6063 22.1095 44.5726 21.6782 43.0074 25.3723L40.6963 30.8278C39.9924 30.7149 39.2892 30.8808 38.7134 31.2943L35.2433 33.7868C31.6534 34.8052 31.0072 36.5137 30.3769 39.1909C30.0461 40.5953 29.7011 41.9858 29.3478 43.3962H28.9372C28.0315 43.3962 27.2941 44.133 27.2933 45.0387L27.2909 47.4753C27.2905 47.9164 27.4608 48.3301 27.7706 48.6401C28.0804 48.9502 28.4938 49.1209 28.9356 49.1209L38.8469 49.1202C39.7524 49.1202 40.4899 48.3834 40.4908 47.4778L40.4932 45.0413C40.4937 44.6001 40.3233 44.1864 40.0135 43.8764C39.7037 43.5663 39.2903 43.3956 38.8493 43.3956H38.7603C38.9103 43.0736 39.1358 42.8122 39.4541 42.5935L43.4709 39.8329C44.8488 38.8859 45.4476 37.0481 45.9287 35.5716C45.9607 35.473 45.9922 35.3766 46.0233 35.2822L48.9692 26.3407C49.4823 24.7842 48.6353 22.8724 47.1922 22.3301ZM38.8492 44.763C38.8858 44.7623 38.9221 44.7691 38.956 44.7827C38.9898 44.7964 39.0206 44.8168 39.0465 44.8427C39.0723 44.8685 39.0927 44.8993 39.1064 44.9332C39.12 44.9671 39.1267 45.0034 39.1261 45.0399L39.1237 47.4768C39.1236 47.5501 39.0943 47.6204 39.0424 47.6722C38.9906 47.724 38.9202 47.7532 38.8469 47.7532L28.9351 47.7539C28.8985 47.7545 28.8622 47.7478 28.8283 47.7341C28.7944 47.7204 28.7636 47.7 28.7378 47.6741C28.7119 47.6482 28.6915 47.6174 28.6779 47.5835C28.6642 47.5496 28.6575 47.5133 28.6581 47.4768L28.6604 45.0401C28.6606 44.9668 28.6898 44.8965 28.7417 44.8447C28.7935 44.7928 28.8639 44.7637 28.9372 44.7636L38.8492 44.763ZM47.6708 25.9133L44.7249 34.8548C44.6935 34.9504 44.6615 35.0484 44.6289 35.1484C44.2118 36.4286 43.6927 38.0221 42.6967 38.7065L38.6799 41.4672C37.9872 41.9433 37.5276 42.592 37.311 43.3961L30.7572 43.3965C31.0826 42.0946 31.401 40.8067 31.7076 39.5046C32.2737 37.1004 32.681 35.9076 35.7246 35.0722C35.8028 35.0507 35.8766 35.0155 35.9425 34.9683L39.511 32.4051C39.7931 32.2024 40.1389 32.1224 40.4855 32.1789C40.8319 32.2357 41.1342 32.4223 41.3367 32.7043C41.7576 33.2901 41.6233 34.1092 41.0375 34.53L36.2951 37.9365C36.1517 38.0438 36.0561 38.203 36.0289 38.38C36.0016 38.5569 36.0449 38.7375 36.1493 38.883C36.2538 39.0284 36.4111 39.1271 36.5875 39.1578C36.7639 39.1884 36.9453 39.1487 37.0928 39.0471L41.8352 35.6404C43.0333 34.7798 43.3078 33.1048 42.4473 31.9067C42.3055 31.7091 42.1374 31.5317 41.9477 31.3795L44.2664 25.906C45.0021 24.1696 45.9157 23.3113 46.7113 23.6102C47.3996 23.8686 47.9775 24.9822 47.6708 25.9133ZM21.0627 43.3964H20.6521C20.2989 41.9859 19.9538 40.5955 19.623 39.1911C18.9926 36.5139 18.3463 34.8053 14.7566 33.787L11.2865 31.2945C10.7107 30.881 10.0068 30.715 9.30361 30.828L6.99248 25.3725C5.42744 21.6782 3.39355 22.1099 2.80771 22.3303C1.36465 22.8726 0.517578 24.7844 1.03057 26.3412L3.97646 35.2827C4.00742 35.3768 4.03887 35.473 4.0708 35.5713C4.55195 37.0481 5.15078 38.8861 6.52881 39.8333L10.5457 42.5939C10.864 42.8127 11.0896 43.0741 11.2395 43.3961H11.1506C10.7095 43.3961 10.296 43.5668 9.98633 43.8769C9.67647 44.1869 9.50615 44.6006 9.50664 45.0418L9.50898 47.4782C9.50986 48.3839 10.2474 49.1207 11.1528 49.1207L21.0649 49.1211C21.5062 49.1211 21.9196 48.9504 22.2294 48.6403C22.5392 48.3303 22.7095 47.9166 22.7091 47.4754L22.7067 45.039C22.7058 44.1332 21.9684 43.3964 21.0627 43.3964ZM11.3201 41.467L7.30322 38.7063C6.30713 38.0217 5.78789 36.4281 5.3708 35.1476C5.33908 35.0499 5.30718 34.9523 5.2751 34.8547L2.3292 25.9132C2.02246 24.9822 2.60039 23.8685 3.28877 23.6098C4.08437 23.311 4.99814 24.1692 5.73369 25.9056L8.05244 31.3791C7.86267 31.5313 7.69458 31.7087 7.55283 31.9063C6.69229 33.1045 6.9668 34.7794 8.16494 35.6401L12.9073 39.0467C13.0547 39.1504 13.237 39.1918 13.4147 39.1618C13.5924 39.1318 13.7511 39.0329 13.8562 38.8865C13.9614 38.7401 14.0044 38.5582 13.9761 38.3802C13.9478 38.2022 13.8504 38.0426 13.705 37.9361L8.9626 34.5297C8.37676 34.1087 8.24248 33.2897 8.66338 32.7039C8.86592 32.4219 9.16816 32.2354 9.51455 32.1785C9.86123 32.1221 10.207 32.2021 10.4891 32.4047L14.0576 34.9679C14.1235 35.0151 14.1973 35.0503 14.2755 35.0718C17.3189 35.9072 17.7263 37.1 18.2925 39.5042C18.5991 40.8063 18.9175 42.0941 19.2429 43.3961L12.689 43.3957C12.4726 42.592 12.013 41.9431 11.3201 41.467ZM21.2621 47.674C21.2257 47.7104 21.162 47.7539 21.0644 47.7539L11.1531 47.7532C11.0798 47.7531 11.0095 47.724 10.9576 47.6721C10.9057 47.6203 10.8765 47.55 10.8764 47.4767L10.874 45.04C10.8734 45.0035 10.8801 44.9671 10.8938 44.9332C10.9075 44.8993 10.9279 44.8686 10.9537 44.8427C10.9795 44.8169 11.0103 44.7965 11.0442 44.7828C11.0781 44.7691 11.1143 44.7624 11.1509 44.763L21.0628 44.7636C21.1361 44.7637 21.2065 44.7929 21.2583 44.8447C21.3102 44.8966 21.3394 44.9669 21.3396 45.0402L21.3419 47.4767C21.3426 47.5132 21.3358 47.5496 21.3221 47.5835C21.3084 47.6174 21.288 47.6482 21.2621 47.674ZM17.2778 16.2028C18.3106 17.7194 19.7781 18.9171 21.4995 19.6158V25.0208H19.762C17.6005 25.0208 15.8419 26.7794 15.8419 28.9409C15.8419 29.1222 15.9139 29.2961 16.0421 29.4243C16.1703 29.5525 16.3442 29.6245 16.5255 29.6245H33.4744C33.6557 29.6245 33.8296 29.5525 33.9578 29.4243C34.086 29.2961 34.158 29.1222 34.158 28.9409C34.158 26.7794 32.3995 25.0208 30.238 25.0208H28.5004V19.6158C30.2218 18.9171 31.6894 17.7194 32.7222 16.2028C36.9923 15.6705 40.289 11.9754 40.289 7.63936V4.47793C40.289 4.29663 40.2169 4.12275 40.0887 3.99456C39.9605 3.86636 39.7867 3.79434 39.6054 3.79434H34.3365V1.5625C34.3365 1.3812 34.2645 1.20732 34.1363 1.07913C34.0081 0.950928 33.8342 0.878906 33.6529 0.878906H16.3471C16.1658 0.878906 15.9919 0.950928 15.8637 1.07913C15.7355 1.20732 15.6635 1.3812 15.6635 1.5625V3.79434H10.3946C10.2133 3.79434 10.0395 3.86636 9.91125 3.99456C9.78306 4.12275 9.71104 4.29663 9.71104 4.47793V7.63945C9.71104 11.9754 13.0077 15.6705 17.2778 16.2028ZM32.698 28.2573H17.302C17.6016 27.1806 18.5909 26.388 19.7619 26.388H30.2379C31.4089 26.3881 32.3982 27.1806 32.698 28.2573ZM27.1332 25.0209H22.8667V20.0513C23.5522 20.2121 24.2662 20.2975 25 20.2975C25.7338 20.2975 26.4479 20.2121 27.1333 20.0513V25.0209H27.1332ZM38.9218 5.16152V7.63945C38.9218 10.9328 36.662 13.7869 33.5797 14.6417C34.0663 13.5117 34.3365 12.2674 34.3365 10.961V5.16152H38.9218ZM17.0307 2.24609H32.9693V10.9609C32.9693 15.3552 29.3943 18.9302 25 18.9302C20.6058 18.9302 17.0308 15.3552 17.0308 10.9609V2.24609H17.0307ZM11.0782 5.16152H15.6635V10.961C15.6635 12.2674 15.9336 13.5117 16.4203 14.6417C13.3381 13.787 11.0782 10.9328 11.0782 7.63945V5.16152ZM20.9672 14.7756C20.9328 14.9085 20.9392 15.0486 20.9856 15.1778C21.032 15.3069 21.1162 15.4192 21.2272 15.4998C21.3383 15.5805 21.471 15.6259 21.6082 15.63C21.7454 15.6342 21.8806 15.597 21.9964 15.5232L25 13.6093L28.0037 15.5232C28.1194 15.5971 28.2547 15.6344 28.3919 15.6302C28.5291 15.6261 28.6619 15.5807 28.773 15.5C28.884 15.4193 28.9682 15.3071 29.0146 15.1779C29.0609 15.0486 29.0673 14.9085 29.0328 14.7756L28.1407 11.3274L30.8893 9.0623C30.9952 8.97502 31.0724 8.85787 31.1108 8.72611C31.1492 8.59435 31.1471 8.45407 31.1047 8.32354C31.0623 8.19301 30.9815 8.07827 30.873 7.99424C30.7645 7.91022 30.6332 7.86081 30.4962 7.85244L26.9412 7.63535L25.6361 4.32139C25.5859 4.19367 25.4983 4.08404 25.3848 4.00677C25.2714 3.92951 25.1373 3.88819 25 3.88819C24.8628 3.88819 24.7287 3.92951 24.6153 4.00677C24.5018 4.08404 24.4142 4.19367 24.364 4.32139L23.0591 7.63535L19.5041 7.85244C19.3671 7.86083 19.2359 7.91025 19.1274 7.99426C19.0189 8.07828 18.9382 8.19301 18.8958 8.32352C18.8533 8.45403 18.8512 8.59428 18.8896 8.72603C18.928 8.85777 19.0052 8.97491 19.111 9.06221L21.8595 11.3274L20.9672 14.7756ZM21.3199 9.11123L23.5771 8.97344C23.707 8.9655 23.8319 8.92063 23.9372 8.84411C24.0425 8.7676 24.1238 8.66262 24.1715 8.5415L25 6.4375L25.8286 8.5415C25.8763 8.66262 25.9575 8.7676 26.0628 8.84412C26.1681 8.92064 26.293 8.9655 26.423 8.97344L28.68 9.11123L26.935 10.5494C26.8345 10.6322 26.7598 10.7419 26.7196 10.8657C26.6794 10.9895 26.6754 11.1222 26.708 11.2481L27.2744 13.4374L25.3674 12.2223C25.2576 12.1523 25.1302 12.1151 25 12.1151C24.8699 12.1151 24.7425 12.1523 24.6327 12.2223L22.7258 13.4374L23.2922 11.2481C23.3248 11.1222 23.3207 10.9895 23.2805 10.8657C23.2403 10.742 23.1656 10.6323 23.0651 10.5495L21.3199 9.11123Z" fill="white"/>
</g>
<defs>
<clipPath id="clip0_5985_8817">
<rect width="50" height="50" fill="white"/>
</clipPath>
</defs>
</svg>
