<svg width="56" height="56" viewBox="0 0 56 56" fill="none" xmlns="http://www.w3.org/2000/svg">
<rect width="56" height="56" rx="28" fill="#9D0A0E"/>
<path d="M33.625 21.625C34.0131 21.625 34.3281 21.31 34.3281 20.9219V16.7031C34.3281 16.315 34.0131 16 33.625 16H29.4062C26.6922 16 24.4844 18.2078 24.4844 20.9219V24.4375H22.375C21.9869 24.4375 21.6719 24.7525 21.6719 25.1406V29.3594C21.6719 29.7475 21.9869 30.0625 22.375 30.0625H24.4844V39.2969C24.4844 39.685 24.7994 40 25.1875 40H29.4062C29.7944 40 30.1094 39.685 30.1094 39.2969V30.0625H32.9219C33.2655 30.0625 33.5589 29.8141 33.6156 29.4752L34.3188 25.2564C34.3525 25.0525 34.2953 24.8439 34.1617 24.6859C34.0281 24.5284 33.8317 24.4375 33.625 24.4375H30.1094V21.625H33.625ZM29.4062 25.8438H32.7948L32.3261 28.6562H29.4062C29.0181 28.6562 28.7031 28.9712 28.7031 29.3594V38.5938H25.8906V29.3594C25.8906 28.9712 25.5756 28.6562 25.1875 28.6562H23.0781V25.8438H25.1875C25.5756 25.8438 25.8906 25.5288 25.8906 25.1406V20.9219C25.8906 18.9836 27.468 17.4062 29.4062 17.4062H32.9219V20.2188H29.4062C29.0181 20.2188 28.7031 20.5338 28.7031 20.9219V25.1406C28.7031 25.5288 29.0181 25.8438 29.4062 25.8438Z" fill="white"/>
</svg>
