<svg width="51" height="51" viewBox="0 0 51 51" fill="none" xmlns="http://www.w3.org/2000/svg">
<g clip-path="url(#clip0_5531_9702)">
<path d="M49.4609 24.375H36.9963C36.8077 24.375 36.6269 24.4499 36.4936 24.5832C36.3602 24.7166 36.2853 24.8974 36.2853 25.0859C36.2853 31.2614 31.2613 36.2854 25.0859 36.2854C18.9106 36.2854 13.8865 31.2613 13.8865 25.0859C13.8865 24.8974 13.8116 24.7166 13.6783 24.5832C13.545 24.4499 13.3642 24.375 13.1756 24.375H0.710938C0.522385 24.375 0.341555 24.4499 0.208229 24.5832C0.0749022 24.7166 0 24.8974 0 25.0859V27.5233C0 28.7983 1.03716 29.8355 2.31207 29.8355C4.23962 29.8355 5.89611 30.944 6.63518 32.7283C7.37435 34.5128 6.98689 36.468 5.62392 37.831C5.40853 38.0452 5.23778 38.3 5.12153 38.5807C5.00528 38.8613 4.94586 39.1622 4.9467 39.466C4.9467 40.0837 5.1872 40.6644 5.62392 41.1009L9.07095 44.5482C9.97242 45.4495 11.4393 45.4496 12.3408 44.5482C13.7057 43.1832 15.6615 42.7941 17.4451 43.5329C19.2285 44.2716 20.3364 45.9297 20.3364 47.8599C20.3364 49.1347 21.3735 50.1719 22.6484 50.1719H27.5232C28.798 50.1719 29.8352 49.1347 29.8352 47.8599C29.8352 45.9324 30.9438 44.2759 32.7281 43.5368C34.5124 42.7973 36.4678 43.1849 37.8308 44.5481C38.7322 45.4495 40.1989 45.4495 41.1006 44.5481L44.5476 41.101C44.763 40.8868 44.9338 40.632 45.0501 40.3513C45.1663 40.0707 45.2257 39.7697 45.2249 39.466C45.2257 39.1622 45.1663 38.8613 45.05 38.5807C44.9338 38.3 44.763 38.0452 44.5476 37.831C43.1847 36.468 42.7971 34.5128 43.5363 32.7283C44.2754 30.944 45.9319 29.8355 47.8595 29.8355C49.1343 29.8355 50.1716 28.7983 50.1716 27.5233V25.0859C50.1716 24.9926 50.1533 24.9001 50.1176 24.8139C50.0819 24.7276 50.0296 24.6492 49.9636 24.5832C49.8976 24.5172 49.8192 24.4648 49.733 24.4291C49.6467 24.3934 49.5543 24.375 49.4609 24.375ZM48.75 27.5233C48.75 28.0142 48.3507 28.4136 47.8598 28.4136C45.3462 28.4136 43.1863 29.8585 42.2229 32.1842C41.2595 34.5101 41.7651 37.0591 43.5425 38.8366C43.6254 38.919 43.6911 39.0171 43.7359 39.1252C43.7806 39.2332 43.8035 39.349 43.8032 39.466C43.8035 39.5829 43.7806 39.6988 43.7359 39.8069C43.6911 39.9149 43.6254 40.0131 43.5425 40.0956L40.0955 43.5426C39.7483 43.8896 39.1835 43.8897 38.8365 43.5426C37.0591 41.7652 34.5101 41.2596 32.1841 42.2231C29.8584 43.1864 28.4135 45.3463 28.4135 47.8599C28.4135 48.3507 28.0142 48.75 27.5234 48.75H22.6486C22.1578 48.75 21.7584 48.3507 21.7584 47.8599C21.7584 45.3436 20.3142 43.1821 17.9894 42.2192C17.2102 41.8965 16.4062 41.7389 15.614 41.7389C14.0424 41.7389 12.5185 42.3597 11.3356 43.5427C10.9886 43.8897 10.4237 43.8897 10.0765 43.5428L6.62949 40.0956C6.54656 40.0131 6.48082 39.915 6.43607 39.8069C6.39132 39.6989 6.36845 39.583 6.36878 39.4661C6.36847 39.3491 6.39135 39.2333 6.4361 39.1252C6.48085 39.0172 6.54658 38.9191 6.62949 38.8366C8.40684 37.0592 8.91241 34.5102 7.94899 32.1843C6.98557 29.8586 4.82574 28.4137 2.31217 28.4137C1.82132 28.4137 1.42198 28.0143 1.42198 27.5234V25.7969H12.4846C12.8548 32.4267 18.3653 37.7073 25.086 37.7073C31.8067 37.7073 37.3174 32.4267 37.6875 25.7969H48.75V27.5233ZM8.04852 23.216H42.1235C42.82 23.216 43.3867 22.6494 43.3867 21.9527V20.6588C43.3867 19.9623 42.82 19.3956 42.1235 19.3956H40.9492V7.36013C40.9492 7.25092 40.924 7.14318 40.8756 7.04525C40.8273 6.94733 40.757 6.86185 40.6703 6.79544C40.5835 6.72912 40.4827 6.68365 40.3755 6.66257C40.2684 6.64149 40.1578 6.64536 40.0524 6.67387L32.7932 8.64013V7.36013C32.7932 7.25092 32.768 7.14318 32.7196 7.04525C32.6713 6.94733 32.601 6.86185 32.5143 6.79544C32.4276 6.72911 32.3267 6.68364 32.2196 6.66256C32.1124 6.64148 32.0018 6.64535 31.8964 6.67387L24.6371 8.64013V7.36013C24.6371 7.25092 24.6119 7.14319 24.5636 7.04528C24.5152 6.94737 24.4449 6.86191 24.3582 6.79555C24.2715 6.72918 24.1706 6.68368 24.0635 6.66258C23.9563 6.64148 23.8458 6.64534 23.7403 6.67387L16.4812 8.64013V1.26323C16.4812 0.566719 15.9144 0 15.2179 0H10.4859C9.78941 0 9.22269 0.566617 9.22269 1.26323V19.3957H8.04852C7.35201 19.3957 6.78529 19.9623 6.78529 20.6589V21.9528C6.78529 22.6494 7.35201 23.216 8.04852 23.216ZM39.5272 8.28923V19.3956H32.7931V10.1132L39.5272 8.28923ZM31.3712 8.28923V19.3956H24.637V10.1132L31.3712 8.28923ZM23.2153 8.28923V19.3956H16.4812V10.1132L23.2153 8.28923ZM15.0592 1.42188V3.41402H10.6446V1.42188H15.0592ZM10.6447 4.8359H15.0593V19.3956H10.6447V4.8359ZM8.20716 20.8176H41.9647V21.7941H8.20716V20.8176ZM18.6748 15.3261H21.0216C21.5354 15.3261 21.9534 14.9081 21.9534 14.3942V12.0474C21.9534 11.5336 21.5354 11.1157 21.0216 11.1157H18.6748C18.161 11.1157 17.743 11.5336 17.743 12.0474V14.3942C17.743 14.9081 18.1609 15.3261 18.6748 15.3261ZM19.1648 12.5376H20.5316V13.9042H19.1648V12.5376ZM26.8308 15.3261H29.1776C29.6914 15.3261 30.1094 14.9081 30.1094 14.3942V12.0474C30.1094 11.5336 29.6914 11.1157 29.1776 11.1157H26.8308C26.317 11.1157 25.8989 11.5336 25.8989 12.0474V14.3942C25.8989 14.9081 26.317 15.3261 26.8308 15.3261ZM27.3208 12.5376H28.6875V13.9042H27.3208V12.5376ZM34.9868 15.3261H37.3336C37.8474 15.3261 38.2654 14.9081 38.2654 14.3942V12.0474C38.2654 11.5336 37.8474 11.1157 37.3336 11.1157H34.9868C34.4729 11.1157 34.0549 11.5336 34.0549 12.0474V14.3942C34.055 14.9081 34.4729 15.3261 34.9868 15.3261ZM35.4769 12.5376H36.8436V13.9042H35.4769V12.5376ZM15.7811 24.375C15.5925 24.375 15.4117 24.4499 15.2784 24.5832C15.1451 24.7166 15.0701 24.8974 15.0701 25.0859C15.0701 30.6088 19.5632 35.1019 25.0859 35.1019C30.6087 35.1019 35.1018 30.6088 35.1018 25.0859C35.1018 24.8974 35.0269 24.7166 34.8936 24.5832C34.7603 24.4499 34.5794 24.375 34.3909 24.375H15.7811ZM25.0859 33.6801C20.5867 33.6801 16.884 30.2042 16.5212 25.7969H33.6508C33.288 30.2043 29.5852 33.6801 25.0859 33.6801Z" fill="#9D0A0E"/>
</g>
<defs>
<clipPath id="clip0_5531_9702">
<rect width="50.1716" height="50.1719" fill="white"/>
</clipPath>
</defs>
</svg>
