<svg width="51" height="51" viewBox="0 0 51 51" fill="none" xmlns="http://www.w3.org/2000/svg">
<g clip-path="url(#clip0_5531_9814)">
<path fill-rule="evenodd" clip-rule="evenodd" d="M23.455 41.0699C23.0244 41.0699 22.6732 40.7184 22.6732 40.2868C22.6732 39.8561 23.0245 39.5048 23.455 39.5048C23.8866 39.5048 24.2379 39.8562 24.2379 40.2868C24.2379 40.7184 23.8866 41.0699 23.455 41.0699ZM23.455 38.0828C22.2403 38.0828 21.2509 39.072 21.2509 40.2868C21.2509 41.5024 22.2402 42.4916 23.455 42.4916C24.6709 42.4916 25.6601 41.5024 25.6601 40.2868C25.6601 39.0721 24.6709 38.0828 23.455 38.0828ZM46.998 42.0387H41.2527V38.5359H46.998C47.9639 38.5359 48.7501 39.3208 48.7501 40.2868C48.7501 41.2527 47.9639 42.0387 46.998 42.0387ZM29.8929 38.5359H39.8309V42.0387H30.1275V40.2868C30.1277 39.6953 30.0488 39.1064 29.8929 38.5359ZM18.2053 46.3125H28.7057V40.2868C28.7057 37.3923 26.3506 35.036 23.455 35.036C20.5604 35.036 18.2053 37.3923 18.2053 40.2868V46.3125ZM35.1713 48.2422C35.1713 48.5224 34.9438 48.75 34.6633 48.75H1.92969C1.79501 48.75 1.66584 48.6965 1.57061 48.6013C1.47538 48.506 1.42187 48.3769 1.42187 48.2422C1.42187 48.1075 1.47538 47.9783 1.57061 47.8831C1.66584 47.7879 1.79501 47.7344 1.92969 47.7344H34.6633C34.798 47.7344 34.9272 47.7879 35.0224 47.8831C35.1177 47.9783 35.1712 48.1075 35.1713 48.2422ZM9.72918 28.0933V46.3125H16.7835V40.2868C16.7835 36.6082 19.7767 33.6142 23.455 33.6142C24.6555 33.6134 25.8338 33.938 26.8644 34.5536V28.0933C26.8644 27.1366 26.0863 26.3584 25.1296 26.3584H11.4635C10.5077 26.3584 9.72918 27.1366 9.72918 28.0933ZM13.3517 20.8763C13.3518 20.7405 13.4057 20.6104 13.5017 20.5144C13.5977 20.4184 13.7279 20.3645 13.8636 20.3644H22.7302C22.8659 20.3646 22.996 20.4186 23.0919 20.5145C23.1878 20.6105 23.2418 20.7406 23.242 20.8763V24.9367H13.3517V20.8763ZM16.7275 5.98315H19.8659V18.9424H16.7275V5.98315ZM13.3517 4.0493V1.93405C13.3518 1.79833 13.4058 1.66819 13.5017 1.57223C13.5977 1.47627 13.7279 1.42234 13.8636 1.42228H22.7302C22.8659 1.42244 22.996 1.47641 23.0919 1.57235C23.1878 1.6683 23.2418 1.79837 23.242 1.93405V4.0493C23.2418 4.18498 23.1878 4.31505 23.0919 4.411C22.9959 4.50696 22.8659 4.56096 22.7302 4.56117H13.8635C13.7278 4.56104 13.5977 4.50706 13.5017 4.41109C13.4058 4.31512 13.3518 4.185 13.3517 4.0493ZM46.998 37.1139H29.3242C29.0423 36.594 28.6905 36.1166 28.2863 35.691V28.0932C28.2863 26.3524 26.8707 24.9365 25.1297 24.9365H24.6637V20.8761C24.6637 19.8096 23.7964 18.9422 22.7302 18.9422H21.2879V5.98315H22.7302C23.7964 5.98315 24.6637 5.1158 24.6637 4.0493V1.93405C24.6637 0.867344 23.7964 0 22.7302 0H13.8635C12.7968 0 11.9299 0.867344 11.9299 1.93405V4.0493C11.9299 5.1158 12.7969 5.98315 13.8635 5.98315H15.3058V18.9424H13.8635C12.7968 18.9424 11.9299 19.8098 11.9299 20.8763V24.9367H11.4635C9.7239 24.9367 8.3069 26.3525 8.3069 28.0934V46.3125H1.92979C0.865516 46.3125 0 47.1778 0 48.2422C0 49.3065 0.865516 50.1719 1.92979 50.1719H34.6634C35.7277 50.1719 36.5932 49.3065 36.5932 48.2422C36.5932 47.1777 35.7278 46.3125 34.6634 46.3125H30.1276V43.4605H46.998C48.7482 43.4605 50.1723 42.0367 50.1723 40.2868C50.1723 38.5368 48.7482 37.1139 46.998 37.1139Z" fill="#9D0A0E"/>
</g>
<defs>
<clipPath id="clip0_5531_9814">
<rect width="50.1723" height="50.1719" fill="white"/>
</clipPath>
</defs>
</svg>
