<svg width="38" height="51" viewBox="0 0 38 51" fill="none" xmlns="http://www.w3.org/2000/svg">
<g clip-path="url(#clip0_5531_9916)">
<path fill-rule="evenodd" clip-rule="evenodd" d="M29.7461 45.4418H9.91738L12.0116 43.3476C12.2888 43.0702 12.2888 42.6203 12.0116 42.3419C11.7339 42.0647 11.2833 42.0647 11.0061 42.3419L7.69803 45.6499C7.56522 45.7835 7.49051 45.9642 7.49013 46.1526C7.49013 46.3415 7.56519 46.5222 7.69803 46.6553L11.0061 49.9631C11.072 50.0293 11.1504 50.0818 11.2367 50.1176C11.3229 50.1533 11.4155 50.1716 11.5089 50.1714C11.6022 50.1715 11.6947 50.1532 11.781 50.1175C11.8673 50.0817 11.9456 50.0293 12.0116 49.9631C12.1447 49.8297 12.2194 49.6489 12.2194 49.4604C12.2194 49.2719 12.1447 49.0911 12.0116 48.9577L9.91738 46.8634H29.7461C29.8395 46.8635 29.932 46.8452 30.0183 46.8095C30.1046 46.7738 30.183 46.7215 30.2491 46.6555C30.3151 46.5894 30.3675 46.5111 30.4032 46.4248C30.4389 46.3385 30.4572 46.246 30.4572 46.1526C30.4572 46.0593 30.4388 45.9668 30.403 45.8806C30.3673 45.7943 30.3149 45.7159 30.2489 45.6499C30.1828 45.5839 30.1045 45.5316 30.0182 45.4959C29.9319 45.4601 29.8395 45.4418 29.7461 45.4418ZM36.5257 23.2596V26.9117C36.5257 27.1819 36.3064 27.4002 36.0373 27.4002C34.0803 27.4002 32.399 28.5255 31.6487 30.3364C30.8989 32.1462 31.2931 34.1309 32.6767 35.5141C32.7683 35.6059 32.8197 35.7303 32.8197 35.86C32.8197 35.9896 32.7683 36.114 32.6767 36.2058L30.0937 38.7883C30.0485 38.8339 29.9948 38.87 29.9356 38.8947C29.8763 38.9193 29.8128 38.9319 29.7487 38.9317C29.6173 38.9317 29.4944 38.8809 29.4021 38.7883C28.0187 37.4052 26.0343 37.0111 24.2236 37.7606C22.4137 38.5111 21.2883 40.1919 21.2883 42.1491C21.2882 42.2541 21.2544 42.3563 21.1918 42.4405C21.1293 42.5248 21.0413 42.5868 20.9409 42.6173V34.5196C22.98 34.0962 24.8382 33.0147 26.2241 31.4324C27.7629 29.6762 28.6108 27.4205 28.6098 25.0855C28.6108 22.7506 27.7629 20.4951 26.2241 18.739C24.8382 17.1575 22.9801 16.0759 20.9409 15.6514V7.55389C21.0413 7.58436 21.1293 7.64632 21.1919 7.73062C21.2545 7.81493 21.2883 7.91711 21.2883 8.02209C21.2883 9.9793 22.4138 11.6602 24.2236 12.4106C26.0343 13.16 28.0186 12.7672 29.4021 11.3827C29.4475 11.3371 29.5015 11.3009 29.561 11.2763C29.6205 11.2517 29.6843 11.2392 29.7487 11.2395C29.8787 11.2395 30.0015 11.2903 30.0937 11.3827L32.6767 13.9654C32.7683 14.0572 32.8197 14.1816 32.8197 14.3112C32.8197 14.4409 32.7683 14.5653 32.6767 14.6571C31.2913 16.0424 30.897 18.0268 31.6464 19.8367C32.3962 21.6465 34.078 22.771 36.0373 22.771C36.1668 22.7713 36.2909 22.8228 36.3825 22.9144C36.474 23.006 36.5255 23.1301 36.5257 23.2596ZM37.9475 23.2596V26.9117C37.9475 27.9659 37.0901 28.8222 36.0373 28.8222C34.3991 28.8222 33.3754 29.8856 32.9629 30.8797C32.5505 31.8752 32.5227 33.3507 33.6817 34.5086C34.4262 35.254 34.4262 36.4655 33.6817 37.2109L31.099 39.7939C30.9221 39.9718 30.7116 40.1128 30.4798 40.2088C30.2479 40.3048 29.9994 40.354 29.7485 40.3534C29.2376 40.3534 28.7582 40.1544 28.3965 39.7939C27.2386 38.635 25.7628 38.6624 24.7677 39.0748C23.7732 39.4861 22.7099 40.5108 22.7099 42.1491C22.7099 43.2024 21.854 44.0594 20.7997 44.0594H20.23C20.1366 44.0595 20.0441 44.0412 19.9578 44.0055C19.8715 43.9698 19.7931 43.9175 19.727 43.8515C19.661 43.7854 19.6086 43.707 19.5729 43.6208C19.5372 43.5345 19.5188 43.442 19.5189 43.3486V33.9225C19.5189 33.7511 19.5807 33.5855 19.693 33.456C19.8053 33.3266 19.9605 33.242 20.1301 33.2177C24.1531 32.652 27.1878 29.1551 27.1878 25.0854C27.1878 21.016 24.1531 17.5202 20.1301 16.9534C19.9606 16.9294 19.8054 16.8449 19.6931 16.7157C19.5808 16.5864 19.519 16.4209 19.5189 16.2497V6.82264C19.5188 6.72923 19.5372 6.63673 19.5729 6.55042C19.6086 6.46411 19.661 6.38569 19.727 6.31964C19.7931 6.2536 19.8715 6.20123 19.9578 6.16553C20.0441 6.12983 20.1366 6.11151 20.23 6.1116H20.7997C21.8539 6.1116 22.7099 6.96889 22.7099 8.02209C22.7099 9.66019 23.7732 10.6851 24.7677 11.0964C25.7628 11.5087 27.2386 11.5362 28.3965 10.3772C28.7582 10.0168 29.2376 9.81772 29.7485 9.81772C30.2579 9.81772 30.7387 10.0167 31.099 10.3772L33.6817 12.96C34.4262 13.7053 34.4262 14.9172 33.6817 15.6625C32.5213 16.8224 32.5485 18.2981 32.9596 19.2924C33.3711 20.2866 34.3962 21.349 36.0372 21.349C37.0901 21.3491 37.9475 22.2063 37.9475 23.2596ZM7.85332 38.7883L5.27079 36.2058C5.17963 36.1138 5.12849 35.9895 5.12849 35.86C5.12849 35.7304 5.17963 35.6062 5.27079 35.5141C6.65529 34.1309 7.04813 32.1462 6.2987 30.3355C5.54795 28.5256 3.86709 27.4003 1.91009 27.4003C1.78056 27.4002 1.65636 27.3487 1.56478 27.2571C1.4732 27.1655 1.42173 27.0413 1.42167 26.9118V23.2597C1.42167 22.9906 1.64105 22.7712 1.91009 22.7712C3.86902 22.7712 5.5513 21.6468 6.30155 19.8369C7.05138 18.027 6.6561 16.0426 5.27069 14.6573C5.17953 14.5653 5.12839 14.441 5.12839 14.3115C5.12839 14.1819 5.17953 14.0576 5.27069 13.9656L7.85322 11.3829C7.89865 11.3373 7.95265 11.3012 8.01211 11.2766C8.07157 11.2521 8.13531 11.2395 8.19965 11.2397C8.32965 11.2397 8.45244 11.2905 8.54516 11.3829C9.92824 12.7662 11.913 13.1602 13.7237 12.4108C15.5336 11.6604 16.6586 9.97951 16.6586 8.02229C16.6587 7.91734 16.6926 7.8152 16.7551 7.73092C16.8177 7.64663 16.9056 7.58465 17.006 7.55409V15.6516C14.9669 16.0761 13.1092 17.1577 11.7229 18.7392C10.1847 20.4956 9.33691 22.751 9.33715 25.0857C9.33687 27.4205 10.1847 29.676 11.7229 31.4326C13.1093 33.0138 14.9669 34.0954 17.006 34.5199V42.6175C16.9057 42.5869 16.8177 42.5249 16.7552 42.4406C16.6927 42.3564 16.6588 42.2543 16.6586 42.1493C16.6586 40.1921 15.5336 38.5113 13.7237 37.7608C13.1163 37.5099 12.4888 37.3871 11.8718 37.3871C10.6493 37.3871 9.4642 37.8695 8.54516 38.7884C8.4999 38.834 8.44606 38.8701 8.38676 38.8947C8.32745 38.9193 8.26386 38.9319 8.19965 38.9318C8.1353 38.932 8.07157 38.9194 8.01212 38.8947C7.95268 38.8701 7.8987 38.8339 7.85332 38.7883ZM8.19985 40.3535C7.94879 40.3541 7.70008 40.305 7.46811 40.209C7.23614 40.113 7.0255 39.9719 6.84836 39.794L4.26532 37.2111C3.52077 36.4656 3.52077 35.254 4.26532 34.5087C5.42425 33.3508 5.39652 31.8752 4.98459 30.8799C4.57316 29.8856 3.54849 28.8223 1.91019 28.8223C0.856883 28.8223 0 27.966 0 26.9118V23.2597C0 22.2064 0.856883 21.3492 1.91019 21.3492C3.55134 21.3492 4.5759 20.2868 4.98743 19.2926C5.39988 18.2983 5.42618 16.8226 4.26532 15.6627C3.52077 14.9173 3.52077 13.7055 4.26532 12.9602L6.84836 10.3774C7.20962 10.017 7.68899 9.81792 8.19985 9.81792C8.7098 9.81792 9.18907 10.0169 9.55084 10.3774C10.7093 11.5364 12.1851 11.5089 13.1796 11.0966C14.1736 10.6854 15.2369 9.6604 15.2369 8.02229C15.2369 6.96899 16.0943 6.1118 17.1476 6.1118H17.7173C17.8106 6.11176 17.9031 6.13013 17.9894 6.16585C18.0756 6.20158 18.154 6.25396 18.22 6.32C18.286 6.38604 18.3383 6.46444 18.374 6.55072C18.4097 6.63701 18.428 6.72947 18.4279 6.82284V16.2499C18.428 16.4211 18.3662 16.5867 18.2538 16.716C18.1415 16.8453 17.9863 16.9297 17.8167 16.9536C13.7941 17.5204 10.7594 21.0162 10.7594 25.0856C10.7594 29.1553 13.7941 32.6511 17.8167 33.2179C17.9865 33.2419 18.1418 33.3264 18.2541 33.456C18.3665 33.5855 18.4282 33.7512 18.4279 33.9227V43.3488C18.428 43.4421 18.4097 43.5346 18.374 43.6209C18.3383 43.7071 18.286 43.7855 18.22 43.8515C18.154 43.9175 18.0756 43.9699 17.9893 44.0056C17.9031 44.0413 17.8106 44.0597 17.7173 44.0596H17.1476C16.0943 44.0596 15.2369 43.2025 15.2369 42.1493C15.2369 40.511 14.1736 39.4864 13.1796 39.075C12.184 38.6627 10.7093 38.6352 9.55084 39.7941C9.18907 40.1544 8.7097 40.3535 8.19985 40.3535ZM20.9408 30.439C23.1487 29.6284 24.6765 27.4996 24.6765 25.0855C24.6765 22.6716 23.1487 20.5426 20.9408 19.7322V30.439ZM19.519 31.3754C19.519 31.5886 19.6146 31.7899 19.778 31.9247C19.9054 32.0293 20.0652 32.0863 20.23 32.0862C20.2754 32.0862 20.3223 32.0821 20.3676 32.0729C23.6881 31.4139 26.0982 28.4746 26.0982 25.0854C26.0982 21.6964 23.6881 18.7583 20.3676 18.098C20.2645 18.0778 20.1581 18.0806 20.0562 18.1063C19.9542 18.1319 19.8592 18.1798 19.7779 18.2464C19.6969 18.3132 19.6317 18.3971 19.5869 18.4921C19.5421 18.5871 19.5189 18.6907 19.5189 18.7957L19.519 31.3754ZM17.0061 19.7322C14.7982 20.5426 13.2718 22.6716 13.2718 25.0855C13.2718 27.4996 14.7982 29.6284 17.0061 30.439V19.7322ZM18.1693 18.2465C18.0879 18.1799 17.9928 18.1321 17.8908 18.1065C17.7888 18.0808 17.6824 18.078 17.5791 18.0981C14.2592 18.7584 11.85 21.6966 11.85 25.0855C11.85 28.4747 14.2592 31.414 17.5791 32.073C17.6251 32.0821 17.6714 32.0863 17.7173 32.0863C17.8107 32.0865 17.9032 32.0683 17.9895 32.0326C18.0758 31.997 18.1543 31.9446 18.2203 31.8786C18.2864 31.8125 18.3387 31.7341 18.3743 31.6477C18.4099 31.5614 18.4281 31.4689 18.4279 31.3755V18.7959C18.4282 18.6909 18.4052 18.5871 18.3605 18.4921C18.3157 18.3971 18.2505 18.3132 18.1693 18.2465ZM7.49013 4.0185C7.49005 4.11185 7.50838 4.20431 7.54406 4.29057C7.57974 4.37684 7.63208 4.45522 7.69808 4.52124C7.76408 4.58726 7.84245 4.63962 7.92871 4.67533C8.01496 4.71104 8.10741 4.72939 8.20076 4.72933H28.03L25.9358 6.82355C25.6586 7.10072 25.6586 7.55084 25.9358 7.82902C26.0018 7.89505 26.0802 7.94742 26.1665 7.98315C26.2527 8.01888 26.3452 8.03728 26.4385 8.03728C26.5319 8.03728 26.6244 8.01888 26.7106 7.98315C26.7969 7.94742 26.8753 7.89505 26.9413 7.82902L30.2489 4.52123C30.3822 4.38819 30.4572 4.2074 30.4572 4.0185C30.4572 3.82959 30.3821 3.64871 30.2489 3.51576L26.9413 0.207873C26.6641 -0.069291 26.2139 -0.069291 25.9358 0.207873C25.6586 0.485037 25.6586 0.936178 25.9358 1.21344L28.03 3.30756H8.20076C8.10741 3.30752 8.01496 3.32588 7.9287 3.3616C7.84244 3.39732 7.76408 3.44969 7.69808 3.51572C7.63208 3.58175 7.57974 3.66014 7.54406 3.74641C7.50838 3.83268 7.49005 3.92514 7.49013 4.0185Z" fill="#9D0A0E"/>
</g>
<defs>
<clipPath id="clip0_5531_9916">
<rect width="37.9475" height="50.1714" fill="white"/>
</clipPath>
</defs>
</svg>
