<svg width="50" height="50" viewBox="0 0 50 50" fill="none" xmlns="http://www.w3.org/2000/svg">
<g clip-path="url(#clip0_5985_8811)">
<path d="M48.0437 5.88145C47.6458 5.88145 47.4889 5.57715 47.4502 5.48389C47.4115 5.39062 47.3074 5.06436 47.5886 4.7832C47.689 4.68339 47.7686 4.56464 47.8228 4.43384C47.877 4.30304 47.9047 4.16278 47.9043 4.02119C47.9043 3.7334 47.7923 3.4627 47.5888 3.25918L46.7406 2.41113C46.3206 1.99131 45.6371 1.99141 45.2169 2.41123C44.9355 2.69277 44.6095 2.58828 44.5161 2.5498C44.4228 2.51113 44.1185 2.3542 44.1185 1.95635C44.1185 1.36221 43.6353 0.878906 43.0411 0.878906H41.8421C41.2479 0.878906 40.7646 1.36221 40.7646 1.95635C40.7646 2.3542 40.4604 2.51113 40.3671 2.5498C40.2738 2.58848 39.9477 2.69268 39.6661 2.41113C39.2461 1.99131 38.5626 1.99141 38.1424 2.41123L37.2944 3.25918C37.0909 3.4627 36.9789 3.7333 36.9789 4.02119C36.9789 4.30908 37.091 4.57969 37.2944 4.78311C37.5758 5.06436 37.4716 5.39062 37.433 5.48389C37.3943 5.57715 37.2374 5.88145 36.8395 5.88145C36.2454 5.88145 35.7621 6.36475 35.7621 6.95889V8.15801C35.7621 8.75205 36.2454 9.23535 36.8395 9.23535C37.2374 9.23535 37.3943 9.53965 37.433 9.63291C37.4717 9.72617 37.5758 10.0524 37.2944 10.3337C36.8743 10.7539 36.8743 11.4374 37.2944 11.8575L38.1424 12.7055C38.5626 13.1255 39.2461 13.1256 39.6662 12.7055C39.9482 12.4233 40.2744 12.5274 40.3674 12.566C40.4605 12.6046 40.7645 12.7615 40.7645 13.1604C40.7645 13.7545 41.2478 14.2378 41.842 14.2378H43.041C43.6352 14.2378 44.1185 13.7545 44.1185 13.1604C44.1185 12.7625 44.4227 12.6056 44.516 12.5669C44.6095 12.5283 44.9355 12.424 45.2168 12.7055C45.4203 12.909 45.6909 13.021 45.9787 13.021C46.2665 13.021 46.5372 12.909 46.7407 12.7055L47.5887 11.8575C47.7922 11.654 47.9042 11.3834 47.9042 11.0956C47.9042 10.8078 47.7922 10.5371 47.5887 10.3336C47.3073 10.0523 47.4115 9.72607 47.4501 9.63281C47.4888 9.53955 47.6457 9.23525 48.0436 9.23525C48.6377 9.23525 49.121 8.75195 49.121 8.15791V6.95889C49.1211 6.36475 48.6378 5.88145 48.0437 5.88145ZM47.7539 7.88799C47.0521 7.98535 46.4666 8.43496 46.1871 9.10977C45.9076 9.78457 46.0037 10.5166 46.4311 11.0815L45.9648 11.5478C45.3999 11.1205 44.6679 11.0241 43.9931 11.3038C43.3183 11.5833 42.8686 12.1688 42.7713 12.8706H42.112C42.0148 12.1683 41.5653 11.5823 40.8906 11.3028C40.216 11.0232 39.4838 11.12 38.9184 11.5478L38.4521 11.0815C38.8796 10.5166 38.9757 9.78457 38.6962 9.10977C38.4167 8.43496 37.8312 7.98535 37.1294 7.88799V7.22871C37.8312 7.13135 38.4167 6.68174 38.6962 6.00693C38.9757 5.33213 38.8796 4.6002 38.4521 4.03516L38.9185 3.56895C39.4833 3.99609 40.2153 4.09238 40.8902 3.81289C41.565 3.5334 42.0146 2.94785 42.112 2.24609H42.7713C42.8686 2.94785 43.3183 3.5334 43.9931 3.81289C44.6679 4.09229 45.3999 3.99629 45.9649 3.56895L46.4311 4.03516C46.0037 4.6001 45.9076 5.33213 46.1871 6.00693C46.4666 6.68174 47.0521 7.13135 47.7539 7.22871V7.88799ZM42.4416 3.94482C40.449 3.94482 38.8279 5.56592 38.8279 7.5585C38.8279 9.55107 40.449 11.1722 42.4416 11.1722C44.4342 11.1722 46.0554 9.55107 46.0554 7.5585C46.0554 5.56592 44.4342 3.94482 42.4416 3.94482ZM42.4416 9.80488C41.2028 9.80488 40.1951 8.79717 40.1951 7.5584C40.1951 6.31963 41.2028 5.31191 42.4416 5.31191C43.6804 5.31191 44.6882 6.31963 44.6882 7.5584C44.6882 8.79717 43.6803 9.80488 42.4416 9.80488ZM13.1604 40.7646C12.7626 40.7646 12.6057 40.4604 12.567 40.3671C12.5283 40.2738 12.4242 39.9476 12.7054 39.6664C12.8058 39.5666 12.8854 39.4478 12.9396 39.317C12.9938 39.1862 13.0215 39.046 13.0211 38.9044C13.0211 38.6166 12.9091 38.3459 12.7056 38.1424L11.8574 37.2943C11.4374 36.8745 10.7539 36.8746 10.3337 37.2944C10.0523 37.576 9.72617 37.4715 9.63291 37.433C9.53965 37.3943 9.23535 37.2374 9.23535 36.8396C9.23535 36.2454 8.75205 35.7621 8.15791 35.7621H6.95889C6.36475 35.7621 5.88144 36.2454 5.88144 36.8396C5.88144 37.2374 5.57715 37.3943 5.48389 37.433C5.39053 37.4717 5.06445 37.5759 4.78291 37.2943C4.36289 36.8745 3.67939 36.8746 3.25918 37.2944L2.41123 38.1424C2.20771 38.3459 2.0957 38.6165 2.0957 38.9044C2.0957 39.1923 2.20781 39.4629 2.41123 39.6663C2.69258 39.9476 2.58838 40.2738 2.5498 40.3671C2.51113 40.4604 2.3542 40.7646 1.95635 40.7646C1.36221 40.7646 0.878906 41.248 0.878906 41.8421V43.0412C0.878906 43.6353 1.36221 44.1186 1.95635 44.1186C2.3542 44.1186 2.51113 44.4229 2.5498 44.5161C2.58848 44.6094 2.69258 44.9356 2.41123 45.2169C2.20771 45.4204 2.0957 45.691 2.0957 45.9789C2.0957 46.2668 2.20781 46.5374 2.41123 46.7408L3.25918 47.5888C3.67939 48.0088 4.36289 48.0089 4.78301 47.5888C5.06504 47.3066 5.39121 47.4107 5.48418 47.4493C5.57734 47.4879 5.88135 47.6448 5.88135 48.0437C5.88135 48.6378 6.36465 49.1211 6.95879 49.1211H8.15781C8.75195 49.1211 9.23525 48.6378 9.23525 48.0437C9.23525 47.6458 9.53955 47.4889 9.63281 47.4502C9.72617 47.4116 10.0523 47.3073 10.3336 47.5888C10.4334 47.6891 10.5522 47.7687 10.683 47.8229C10.8138 47.877 10.954 47.9047 11.0956 47.9043C11.3833 47.9043 11.654 47.7923 11.8575 47.5888L12.7053 46.7409C12.8057 46.6411 12.8853 46.5224 12.9395 46.3916C12.9937 46.2607 13.0214 46.1205 13.021 45.9789C13.021 45.6911 12.909 45.4204 12.7055 45.2169C12.4241 44.9356 12.5283 44.6094 12.5669 44.5161C12.6056 44.4229 12.7625 44.1186 13.1603 44.1186C13.7545 44.1186 14.2378 43.6353 14.2378 43.0412V41.8421C14.2379 41.248 13.7546 40.7646 13.1604 40.7646ZM12.8707 42.7713C12.1689 42.8687 11.5834 43.3183 11.3039 43.9931C11.0244 44.6679 11.1205 45.3999 11.5479 45.9648L11.0816 46.4311C10.5168 46.0038 9.78467 45.9073 9.10986 46.1871C8.43506 46.4666 7.98545 47.0521 7.88809 47.7539H7.22881C7.13164 47.0516 6.68213 46.4656 6.00742 46.1861C5.33291 45.9066 4.60049 46.0033 4.03516 46.4311L3.56904 45.9648C3.99639 45.3999 4.09248 44.6679 3.81299 43.9931C3.5335 43.3183 2.94785 42.8687 2.24609 42.7713V42.112C2.94785 42.0146 3.5334 41.565 3.81289 40.8902C4.09238 40.2154 3.99629 39.4835 3.56885 38.9185L4.03516 38.4522C4.6 38.8795 5.33193 38.9758 6.00693 38.6962C6.68174 38.4167 7.13135 37.8312 7.22871 37.1294H7.88799C7.98535 37.8312 8.43496 38.4167 9.10977 38.6962C9.78467 38.9758 10.5167 38.8796 11.0816 38.4522L11.5479 38.9185C11.1204 39.4834 11.0243 40.2154 11.3038 40.8902C11.5833 41.565 12.1688 42.0146 12.8706 42.112V42.7713H12.8707ZM7.5584 38.828C5.56582 38.828 3.94463 40.4491 3.94463 42.4417C3.94463 44.4343 5.56582 46.0554 7.5584 46.0554C9.55098 46.0554 11.1721 44.4343 11.1721 42.4417C11.1721 40.4491 9.55107 38.828 7.5584 38.828ZM7.5584 44.6881C6.31963 44.6881 5.31182 43.6804 5.31182 42.4416C5.31182 41.2028 6.31963 40.1951 7.5584 40.1951C8.79717 40.1951 9.80488 41.2028 9.80488 42.4416C9.80488 43.6804 8.79717 44.6881 7.5584 44.6881ZM25 15.6394C24.8187 15.6394 24.6448 15.5673 24.5166 15.4391C24.3884 15.3109 24.3164 15.1371 24.3164 14.9558V13.1973C24.3164 13.016 24.3884 12.8421 24.5166 12.7139C24.6448 12.5857 24.8187 12.5137 25 12.5137C25.1813 12.5137 25.3552 12.5857 25.4834 12.7139C25.6116 12.8421 25.6836 13.016 25.6836 13.1973V14.9558C25.6836 15.1371 25.6116 15.3109 25.4834 15.4391C25.3552 15.5673 25.1813 15.6394 25 15.6394ZM19.5046 16.6115L18.6254 15.0886C18.5362 14.9317 18.5126 14.7458 18.5599 14.5716C18.6072 14.3974 18.7215 14.249 18.8778 14.1587C19.0342 14.0684 19.2199 14.0437 19.3944 14.0898C19.5689 14.136 19.7181 14.2493 19.8094 14.405L20.6886 15.9279C20.7778 16.0849 20.8013 16.2707 20.754 16.4449C20.7067 16.6191 20.5924 16.7675 20.4361 16.8578C20.2798 16.9481 20.0941 16.9728 19.9196 16.9267C19.7451 16.8805 19.5959 16.7673 19.5046 16.6115ZM17.099 20.201C17.0542 20.2787 16.9944 20.3469 16.9232 20.4016C16.852 20.4563 16.7707 20.4964 16.684 20.5196C16.5973 20.5428 16.5068 20.5488 16.4178 20.537C16.3288 20.5253 16.243 20.4962 16.1652 20.4513L14.6425 19.5721C14.4868 19.4808 14.3735 19.3316 14.3273 19.1571C14.2812 18.9826 14.3059 18.7969 14.3962 18.6405C14.4865 18.4842 14.6349 18.3699 14.8091 18.3226C14.9833 18.2753 15.1691 18.2989 15.3261 18.3881L16.8488 19.2673C17.0058 19.3579 17.1203 19.5072 17.1673 19.6823C17.2142 19.8574 17.1896 20.044 17.099 20.201ZM31.3746 15.0886L30.4954 16.6115C30.4511 16.6903 30.3915 16.7595 30.3203 16.8151C30.249 16.8707 30.1674 16.9116 30.0802 16.9355C29.9931 16.9593 29.902 16.9657 29.8124 16.9541C29.7227 16.9426 29.6363 16.9134 29.558 16.8682C29.4797 16.823 29.4112 16.7627 29.3563 16.6909C29.3015 16.619 29.2614 16.537 29.2385 16.4495C29.2156 16.3621 29.2102 16.271 29.2227 16.1815C29.2352 16.092 29.2654 16.0058 29.3114 15.928L30.1906 14.4051C30.2823 14.2501 30.4314 14.1376 30.6055 14.092C30.7797 14.0463 30.9648 14.0712 31.1207 14.1612C31.2766 14.2512 31.3907 14.399 31.4383 14.5727C31.4858 14.7463 31.4629 14.9317 31.3746 15.0886ZM32.9009 20.201C32.8102 20.044 32.7857 19.8574 32.8326 19.6823C32.8795 19.5071 32.9941 19.3578 33.1511 19.2672L34.674 18.388C34.8309 18.2988 35.0168 18.2752 35.191 18.3225C35.3652 18.3698 35.5136 18.4841 35.6039 18.6404C35.6942 18.7968 35.7189 18.9825 35.6728 19.157C35.6266 19.3315 35.5133 19.4807 35.3576 19.572L33.8347 20.4512C33.7569 20.4961 33.6711 20.5253 33.5821 20.5371C33.4931 20.5488 33.4026 20.5429 33.3159 20.5197C33.2292 20.4964 33.1479 20.4563 33.0767 20.4016C33.0055 20.3469 32.9457 20.2788 32.9009 20.201ZM31.153 23.6416C31.153 20.2488 28.3928 17.4886 25 17.4886C21.6073 17.4886 18.8471 20.2488 18.8471 23.6416C18.8471 25.3586 19.41 26.2293 19.9542 27.0713C20.4996 27.9148 21.0616 28.7854 21.2953 30.7562C20.7609 31.012 20.39 31.5566 20.39 32.1875V34.1389C20.39 35.0144 21.1023 35.7267 21.9778 35.7267H22.2236V35.9496C22.2236 36.7969 22.913 37.4861 23.7603 37.4861H26.2397C27.087 37.4861 27.7762 36.7968 27.7762 35.9496V35.7267H28.0222C28.8977 35.7267 29.61 35.0144 29.61 34.1389V32.1875C29.61 31.5565 29.2391 31.0119 28.7046 30.7561C28.9383 28.7854 29.5005 27.9147 30.0457 27.0712C30.5901 26.2293 31.153 25.3586 31.153 23.6416ZM28.2428 34.139C28.2428 34.2586 28.1418 34.3596 28.0222 34.3596H27.0926C26.9113 34.3596 26.7374 34.4316 26.6092 34.5598C26.481 34.688 26.409 34.8619 26.409 35.0432V35.9497C26.409 36.0415 26.3314 36.119 26.2397 36.119H23.7603C23.6685 36.119 23.5908 36.0415 23.5908 35.9497V35.0432C23.5908 34.8619 23.5188 34.688 23.3906 34.5598C23.2624 34.4316 23.0885 34.3596 22.9072 34.3596H21.9778C21.8582 34.3596 21.7572 34.2586 21.7572 34.139V32.1876C21.7572 32.068 21.8582 31.967 21.9778 31.967H28.0222C28.1418 31.967 28.2428 32.068 28.2428 32.1876V34.139ZM28.8977 26.329C28.3238 27.2166 27.6214 28.3049 27.3471 30.5997H25.6836V25.0541L27.6872 23.8974C27.8429 23.8061 27.9562 23.6569 28.0024 23.4824C28.0485 23.3078 28.0237 23.1222 27.9335 22.9658C27.8432 22.8095 27.6948 22.6952 27.5206 22.6479C27.3464 22.6006 27.1605 22.6242 27.0036 22.7134L25 23.8701L22.9964 22.7133C22.8395 22.6241 22.6536 22.6005 22.4794 22.6478C22.3052 22.6951 22.1568 22.8094 22.0665 22.9657C21.9762 23.1221 21.9515 23.3078 21.9976 23.4823C22.0438 23.6568 22.1571 23.806 22.3128 23.8973L24.3164 25.0541V30.5997H22.6529C22.3787 28.3048 21.6762 27.2166 21.1023 26.329C20.5868 25.5314 20.2143 24.9552 20.2143 23.6415C20.2143 21.0026 22.361 18.8557 25 18.8557C27.639 18.8557 29.7858 21.0025 29.7858 23.6415C29.7858 24.9552 29.4133 25.5314 28.8977 26.329ZM42.4416 17.4227C41.1762 17.4227 40.1467 18.4521 40.1467 19.7176C40.1467 20.745 40.8254 21.6169 41.758 21.9085V41.758H19.7566L20.9393 40.5753C21.0027 40.5118 21.0531 40.4365 21.0874 40.3536C21.1218 40.2706 21.1395 40.1818 21.1395 40.092C21.1395 40.0022 21.1218 39.9134 21.0874 39.8304C21.0531 39.7475 21.0027 39.6722 20.9393 39.6087C20.8758 39.5452 20.8004 39.4949 20.7175 39.4605C20.6346 39.4261 20.5457 39.4085 20.456 39.4085C20.3662 39.4085 20.2773 39.4261 20.1944 39.4605C20.1115 39.4949 20.0361 39.5452 19.9727 39.6087L17.6229 41.9584C17.5595 42.0219 17.5091 42.0972 17.4747 42.1801C17.4404 42.2631 17.4227 42.352 17.4227 42.4417C17.4227 42.5315 17.4404 42.6204 17.4747 42.7034C17.5091 42.7863 17.5595 42.8616 17.6229 42.9251L19.9727 45.2747C20.1061 45.4081 20.2811 45.4749 20.456 45.4749C20.6309 45.4749 20.8059 45.4081 20.9394 45.2746C21.0675 45.1464 21.1395 44.9725 21.1395 44.7912C21.1395 44.61 21.0675 44.4361 20.9393 44.3079L19.7566 43.1254H42.4416C42.6229 43.1254 42.7968 43.0534 42.925 42.9252C43.0532 42.797 43.1252 42.6231 43.1252 42.4418V21.9085C44.0578 21.6169 44.7365 20.745 44.7365 19.7176C44.7365 18.4521 43.707 17.4227 42.4416 17.4227ZM42.4416 20.6453C41.9301 20.6453 41.5139 20.2291 41.5139 19.7176C41.5139 19.2061 41.9301 18.7898 42.4416 18.7898C42.9531 18.7898 43.3693 19.2061 43.3693 19.7176C43.3693 20.2291 42.9531 20.6453 42.4416 20.6453ZM7.5584 32.5773C8.82383 32.5773 9.85332 31.5479 9.85332 30.2824C9.85332 29.255 9.17461 28.3831 8.24199 28.0915V8.24199H30.2434L29.0607 9.42451C28.9346 9.55313 28.8644 9.72631 28.8653 9.90643C28.8662 10.0865 28.9381 10.259 29.0655 10.3864C29.1928 10.5138 29.3653 10.5857 29.5454 10.5867C29.7255 10.5876 29.8987 10.5174 30.0273 10.3913L32.377 8.0417C32.5052 7.91348 32.5772 7.73962 32.5772 7.55835C32.5772 7.37708 32.5052 7.20322 32.377 7.075L30.0273 4.72549C29.9639 4.66201 29.8885 4.61165 29.8056 4.5773C29.7227 4.54294 29.6338 4.52526 29.544 4.52526C29.4543 4.52526 29.3654 4.54294 29.2825 4.5773C29.1995 4.61165 29.1242 4.66201 29.0607 4.72549C28.9973 4.78895 28.9469 4.8643 28.9126 4.94722C28.8782 5.03015 28.8605 5.11903 28.8605 5.20879C28.8605 5.29855 28.8782 5.38743 28.9126 5.47036C28.9469 5.55328 28.9973 5.62863 29.0607 5.69209L30.2434 6.8748H7.5584C7.3771 6.8748 7.20322 6.94683 7.07502 7.07502C6.94683 7.20322 6.8748 7.3771 6.8748 7.5584V28.0914C5.94219 28.383 5.26348 29.2549 5.26348 30.2823C5.26348 31.5479 6.29297 32.5773 7.5584 32.5773ZM7.5584 29.3547C8.06992 29.3547 8.48613 29.7709 8.48613 30.2824C8.48613 30.7939 8.06992 31.2102 7.5584 31.2102C7.04688 31.2102 6.63066 30.7939 6.63066 30.2824C6.63066 29.7709 7.04688 29.3547 7.5584 29.3547Z" fill="white"/>
</g>
<defs>
<clipPath id="clip0_5985_8811">
<rect width="50" height="50" fill="white"/>
</clipPath>
</defs>
</svg>
