<svg width="32" height="32" viewBox="0 0 32 32" fill="none" xmlns="http://www.w3.org/2000/svg">
<rect width="32" height="32" rx="16" fill="#9D0A0E"/>
<g clip-path="url(#clip0_6626_9692)">
<path d="M23.996 24L24 23.9993V18.1313C24 15.2607 23.382 13.0493 20.026 13.0493C18.4127 13.0493 17.33 13.9347 16.888 14.774H16.8413V13.3173H13.6593V23.9993H16.9727V18.71C16.9727 17.3173 17.2367 15.9707 18.9613 15.9707C20.6607 15.9707 20.686 17.56 20.686 18.7993V24H23.996ZM8.264 13.318H11.5813V24H8.264V13.318ZM9.92133 8C8.86067 8 8 8.86067 8 9.92133C8 10.982 8.86067 11.8607 9.92133 11.8607C10.982 11.8607 11.8427 10.982 11.8427 9.92133C11.8423 9.41187 11.6398 8.92338 11.2795 8.56314C10.9193 8.20289 10.4308 8.00035 9.92133 8Z" fill="white"/>
</g>
<defs>
<clipPath id="clip0_6626_9692">
<rect width="16" height="16" fill="white" transform="translate(8 8)"/>
</clipPath>
</defs>
</svg>
