<svg width="56" height="56" viewBox="0 0 56 56" fill="none" xmlns="http://www.w3.org/2000/svg">
<rect width="56" height="56" rx="28" fill="#9D0A0E"/>
<g clip-path="url(#clip0_6928_582)">
<path d="M21.2687 23.5311H16.75C16.3616 23.5311 16.0469 23.8461 16.0469 24.2343V39.2969C16.0469 39.6852 16.3616 40 16.75 40H21.2687C21.6571 40 21.9718 39.6852 21.9718 39.2969V24.2343C21.9718 23.8461 21.6571 23.5311 21.2687 23.5311ZM20.5655 38.5938H17.4531V24.9374H20.5655V38.5938ZM19.0095 16C17.3759 16 16.0469 17.329 16.0469 18.9623C16.0469 20.596 17.3759 21.9248 19.0095 21.9248C20.643 21.9248 21.9718 20.5958 21.9718 18.9623C21.9718 17.329 20.643 16 19.0095 16ZM19.0095 20.5185C18.1513 20.5185 17.4531 19.8205 17.4531 18.9623C17.4531 18.1043 18.1513 17.4062 19.0095 17.4062C19.8676 17.4062 20.5655 18.1042 20.5655 18.9623C20.5655 19.8205 19.8676 20.5185 19.0095 20.5185ZM32.5661 23.4317C31.4973 23.4317 30.4439 23.6893 29.5006 24.1713C29.4685 23.8126 29.1673 23.5311 28.8002 23.5311H24.2811C23.893 23.5311 23.578 23.8461 23.578 24.2343V39.2969C23.578 39.6852 23.893 40 24.2811 40H28.8002C29.1885 40 29.5033 39.6852 29.5033 39.2969V31.0125C29.5033 29.9468 30.3705 29.0798 31.4362 29.0798C32.5018 29.0798 33.3686 29.9468 33.3686 31.0125V39.2969C33.3686 39.6852 33.6836 40 34.0718 40H38.5907C38.979 40 39.2938 39.6852 39.2938 39.2969V30.1593C39.2938 26.4497 36.2758 23.4317 32.5661 23.4317ZM37.8875 38.5938H34.7751V31.0125C34.7751 29.1713 33.2773 27.6736 31.4364 27.6736C29.595 27.6736 28.097 29.1713 28.097 31.0125V38.5938H24.9844V24.9374H28.097V25.4568C28.097 25.7273 28.2521 25.9737 28.496 26.0908C28.6155 26.1481 28.7487 26.1705 28.8804 26.1554C29.012 26.1403 29.1368 26.0883 29.2402 26.0055C30.1923 25.2417 31.3426 24.838 32.5661 24.838C35.5004 24.838 37.8875 27.2251 37.8875 30.1593V38.5938Z" fill="white"/>
</g>
<defs>
<clipPath id="clip0_6928_582">
<rect width="24" height="24" fill="white" transform="translate(16 16)"/>
</clipPath>
</defs>
</svg>
