<svg width="56" height="56" viewBox="0 0 56 56" fill="none" xmlns="http://www.w3.org/2000/svg">
<rect width="56" height="56" rx="28" fill="#9D0A0E"/>
<path d="M39.8939 21.1346C39.8244 21.0214 39.7247 20.9298 39.606 20.8701C39.4874 20.8104 39.3545 20.7848 39.2221 20.7964L38.0254 20.9006L39.1693 18.5947C39.2357 18.4608 39.2586 18.3094 39.2346 18.1618C39.2106 18.0142 39.141 17.8778 39.0356 17.7718C38.9301 17.6658 38.7941 17.5955 38.6466 17.5708C38.4992 17.546 38.3476 17.5681 38.2134 17.6339L35.1858 19.1166C33.3154 18.1291 30.9785 18.4222 29.3705 19.887C28.0285 21.1095 27.3231 22.9895 27.4546 24.8643C23.947 24.5128 20.9779 22.5051 19.2223 19.261C19.165 19.1552 19.0819 19.0654 18.9807 19.0002C18.8795 18.9349 18.7634 18.8963 18.6433 18.8878C18.5232 18.8793 18.4029 18.9013 18.2935 18.9516C18.1841 19.002 18.0892 19.0791 18.0176 19.1759C16.9287 20.6469 16.8523 22.6638 17.7059 24.3232C17.4706 24.2637 17.2202 24.1833 16.9425 24.0905C16.8255 24.0514 16.7004 24.0432 16.5793 24.0667C16.4582 24.0902 16.3452 24.1446 16.2514 24.2246C16.1575 24.3046 16.0859 24.4076 16.0435 24.5234C16.0012 24.6393 15.9895 24.7641 16.0096 24.8858C16.3473 26.9337 17.5415 28.5076 19.428 29.4392C19.1824 29.5247 18.9315 29.5942 18.6768 29.6473C18.5525 29.6732 18.4373 29.7317 18.343 29.8169C18.2487 29.9021 18.1788 30.0108 18.1405 30.1319C18.1022 30.253 18.0968 30.3821 18.1248 30.506C18.1529 30.6299 18.2135 30.7441 18.3003 30.8369C19.6587 32.289 21.6211 33.0037 23.015 33.3465C21.4301 34.5876 19.7193 34.7953 17.2334 34.71C16.9456 34.7013 16.6805 34.8633 16.5595 35.1242C16.5003 35.2518 16.4801 35.3941 16.5013 35.5331C16.5225 35.6722 16.5842 35.8019 16.6788 35.9061C17.7151 37.0484 21.4907 38.3365 25.4597 38.433C25.6166 38.4368 25.7768 38.4389 25.9403 38.4389C28.727 38.4388 32.4101 37.8415 35.0537 35.1978C37.0546 33.1969 38.3062 30.8935 38.7735 28.3516C39.1509 26.2986 38.9124 24.6546 38.7978 23.8645C38.7893 23.8064 38.7803 23.7448 38.773 23.6909L39.8924 21.8867C39.9624 21.7738 39.9997 21.6437 39.9999 21.5108C40.0002 21.378 39.9635 21.2477 39.8939 21.1346ZM37.3811 24.07C37.5935 25.5336 38.2397 29.9875 34.0415 34.1857C31.6012 36.6259 28.0468 37.0641 25.4944 37.0021C23.3166 36.9491 21.3686 36.5326 19.9567 36.0576C20.5299 35.9873 21.0408 35.8788 21.523 35.7289C22.8523 35.3157 23.9753 34.5723 25.0571 33.3892C25.1455 33.2924 25.2057 33.1733 25.2311 33.0447C25.2564 32.9161 25.246 32.783 25.2009 32.6599C25.1558 32.5369 25.0777 32.4285 24.9753 32.3468C24.8728 32.265 24.7499 32.213 24.6199 32.1963C23.9374 32.1089 21.8868 31.7637 20.2721 30.6498C20.7374 30.4595 21.1862 30.2214 21.6147 29.9371C21.7298 29.8608 21.8203 29.7527 21.8754 29.6261C21.9305 29.4995 21.9477 29.3596 21.9251 29.2234C21.9024 29.0871 21.8409 28.9604 21.7478 28.8583C21.6547 28.7563 21.5341 28.6834 21.4006 28.6483C20.0789 28.3018 18.4839 27.5265 17.7483 25.7958C18.218 25.8781 18.7287 25.898 19.2734 25.7759C19.3974 25.7481 19.5118 25.6878 19.6048 25.6012C19.6978 25.5145 19.766 25.4047 19.8025 25.283C19.839 25.1613 19.8424 25.032 19.8124 24.9085C19.7824 24.7851 19.7201 24.6718 19.6318 24.5804C18.7166 23.6325 18.3744 22.2664 18.668 21.0975C19.6296 22.5029 20.8478 23.6856 22.2436 24.5601C24.0291 25.6788 26.1131 26.297 28.2703 26.3478C28.3788 26.3501 28.4865 26.3278 28.5852 26.2826C28.6839 26.2374 28.7711 26.1703 28.8401 26.0865C28.9091 26.0026 28.958 25.9041 28.9833 25.7985C29.0085 25.6928 29.0094 25.5828 28.9858 25.4768C28.6146 23.8083 29.144 22.0296 30.3344 20.9452C31.5691 19.8205 33.3939 19.6498 34.7719 20.5306C34.8754 20.5967 34.9942 20.6351 35.1168 20.642C35.2394 20.649 35.3618 20.6242 35.4721 20.5702L36.9506 19.8461L36.1767 21.4061C36.1203 21.52 36.0951 21.6468 36.1039 21.7736C36.1127 21.9003 36.155 22.0225 36.2267 22.1275C36.2982 22.2325 36.3965 22.3165 36.5113 22.371C36.6261 22.4254 36.7534 22.4483 36.88 22.4372L37.9226 22.3464L37.4423 23.1205C37.2811 23.3803 37.3145 23.6109 37.3811 24.07Z" fill="white"/>
</svg>
