<svg width="62" height="61" viewBox="0 0 62 61" fill="none" xmlns="http://www.w3.org/2000/svg">
<path d="M30.9324 56.5C35.4539 56.4999 39.8987 55.332 43.8362 53.1092C47.7736 50.8865 51.0702 47.6844 53.4064 43.8133C55.7427 39.9421 57.0394 35.5331 57.1709 31.0135C57.3024 26.494 56.2643 22.017 54.1571 18.0166C54.0379 17.8019 53.8391 17.6425 53.6036 17.5728C53.3681 17.5031 53.1147 17.5286 52.8978 17.6438C52.6809 17.759 52.5178 17.9547 52.4437 18.1889C52.3696 18.423 52.3904 18.6769 52.5015 18.8959C54.347 22.3958 55.3102 26.2933 55.3074 30.25C53.9715 62.5816 7.89336 62.5816 6.55742 30.25C6.33242 12.1731 26.4324 0.05688 42.2874 8.68188C42.3962 8.73956 42.5153 8.77525 42.6378 8.78691C42.7604 8.79857 42.8841 8.78598 43.0018 8.74986C43.1194 8.71373 43.2289 8.65477 43.3238 8.57635C43.4187 8.49793 43.4972 8.40159 43.5549 8.29282C43.6126 8.18405 43.6483 8.06498 43.66 7.94241C43.6716 7.81985 43.659 7.69619 43.6229 7.57849C43.5868 7.46079 43.5278 7.35136 43.4494 7.25645C43.371 7.16153 43.2746 7.083 43.1659 7.02532C39.3951 5.036 35.1957 3.99749 30.9324 4C-3.88633 5.43907 -3.88633 55.0619 30.9324 56.5Z" fill="#9D0A0E"/>
<path d="M30.9326 22.75C31.7442 22.7495 32.5502 22.8841 33.3176 23.1484C33.5526 23.2294 33.8103 23.2136 34.0337 23.1046C34.2572 22.9956 34.4282 22.8023 34.5091 22.5672C34.9216 20.9106 32.0013 20.9763 30.9326 20.875C18.4966 21.3887 18.4976 39.1112 30.9326 39.625C33.4181 39.6223 35.8011 38.6337 37.5587 36.8761C39.3162 35.1185 40.3048 32.7356 40.3076 30.25C40.2119 29.1625 40.2747 26.2722 38.6238 26.6828C38.3889 26.7638 38.1958 26.9346 38.0868 27.1579C37.9779 27.3811 37.9619 27.6385 38.0426 27.8734C38.3037 28.6385 38.4355 29.4416 38.4326 30.25C38.0566 40.1847 23.8076 40.1847 23.4326 30.25C23.435 28.2616 24.226 26.3554 25.632 24.9494C27.038 23.5435 28.9442 22.7525 30.9326 22.75Z" fill="#9D0A0E"/>
<path d="M39.9091 15.9391C39.9689 15.8314 40.0068 15.7129 40.0208 15.5905C40.0348 15.4681 40.0245 15.3442 39.9905 15.2258C39.9566 15.1074 39.8996 14.9968 39.8229 14.9004C39.7462 14.8041 39.6513 14.7237 39.5435 14.6641C36.9078 13.2053 33.945 12.4392 30.9326 12.4375C7.30568 13.4144 7.30568 47.0866 30.9326 48.0625C34.0311 48.0643 37.0765 47.2574 39.7676 45.7214C42.4588 44.1855 44.7024 41.9737 46.2766 39.3048C47.8508 36.6359 48.7012 33.6024 48.7437 30.5041C48.7861 27.4058 48.0191 24.3501 46.5185 21.6391C46.3979 21.4215 46.1958 21.2608 45.9567 21.1922C45.7176 21.1236 45.4611 21.1528 45.2435 21.2734C45.0259 21.394 44.8652 21.5961 44.7966 21.8352C44.7281 22.0743 44.7573 22.3309 44.8779 22.5484C50.8216 32.8534 42.8388 46.3937 30.9326 46.1875C26.7071 46.1828 22.6561 44.5021 19.6683 41.5143C16.6804 38.5265 14.9998 34.4754 14.9951 30.25C14.7907 18.3447 28.3272 10.3609 38.6341 16.3047C38.7418 16.3647 38.8602 16.4029 38.9827 16.417C39.1051 16.4311 39.2291 16.4208 39.3476 16.3868C39.4661 16.3529 39.5767 16.2958 39.673 16.219C39.7694 16.1421 39.8496 16.047 39.9091 15.9391Z" fill="#9D0A0E"/>
<path d="M41.7361 13.2794L42.0801 17.7766L30.2695 29.5872C30.0987 29.764 30.0042 30.0008 30.0064 30.2466C30.0085 30.4924 30.1071 30.7276 30.2809 30.9014C30.4548 31.0752 30.6899 31.1738 30.9357 31.1759C31.1815 31.1781 31.4183 31.0836 31.5951 30.9128L43.4058 19.1022L47.903 19.4462C48.0377 19.4565 48.173 19.4375 48.2997 19.3906C48.4264 19.3437 48.5415 19.2699 48.637 19.1744L55.4601 12.3512C55.5842 12.2234 55.6695 12.0631 55.7063 11.8889C55.7431 11.7146 55.7299 11.5335 55.6681 11.3664C55.6063 11.1994 55.4986 11.0532 55.3573 10.9448C55.216 10.8364 55.0469 10.7701 54.8695 10.7537L50.7445 10.4378L50.4286 6.3128C50.4122 6.13545 50.346 5.96636 50.2375 5.82504C50.1291 5.68373 49.983 5.57597 49.8159 5.51421C49.6488 5.45245 49.4677 5.4392 49.2935 5.476C49.1192 5.5128 48.9589 5.59815 48.8311 5.72218L42.008 12.5453C41.9123 12.6408 41.8385 12.7558 41.7916 12.8825C41.7446 13.0093 41.7257 13.1446 41.7361 13.2794ZM48.7148 8.48968C49.0898 12.8556 48.3511 12.0869 52.6926 12.4675L47.6161 17.5441L43.9214 17.2609L43.6383 13.5672L48.7148 8.48968Z" fill="#9D0A0E"/>
</svg>
