<svg width="24" height="24" viewBox="0 0 24 24" fill="none" xmlns="http://www.w3.org/2000/svg">
<g clip-path="url(#clip0_5528_6702)">
<path d="M11.2286 18.589C11.2541 18.6145 11.2809 18.6387 11.3088 18.6616C11.3211 18.6716 11.334 18.6804 11.3466 18.6898C11.3625 18.7017 11.378 18.714 11.3945 18.725C11.41 18.7353 11.426 18.7443 11.4417 18.7537C11.4564 18.7625 11.4708 18.7718 11.486 18.7799C11.5022 18.7886 11.5189 18.7959 11.5355 18.8037C11.5511 18.8111 11.5665 18.819 11.5826 18.8256C11.5988 18.8323 11.6153 18.8377 11.6318 18.8436C11.6489 18.8497 11.6658 18.8563 11.6833 18.8616C11.6998 18.8665 11.7165 18.8703 11.7331 18.8744C11.751 18.8789 11.7687 18.8839 11.7868 18.8876C11.806 18.8913 11.8253 18.8936 11.8446 18.8964C11.8605 18.8986 11.8762 18.9017 11.8924 18.9033C11.9282 18.9068 11.9641 18.9087 12.0001 18.9087C12.036 18.9087 12.0719 18.9068 12.1076 18.9033C12.1241 18.9017 12.1399 18.8986 12.1561 18.8963C12.1752 18.8936 12.1943 18.8913 12.2132 18.8876C12.2317 18.8839 12.2498 18.8788 12.268 18.8742C12.2842 18.87 12.3006 18.8665 12.3167 18.8617C12.3345 18.8562 12.3518 18.8495 12.3693 18.8433C12.3854 18.8375 12.4016 18.8322 12.4174 18.8257C12.4338 18.8189 12.4495 18.811 12.4654 18.8034C12.4817 18.7957 12.4983 18.7884 12.5143 18.7799C12.5295 18.7717 12.5439 18.7625 12.5587 18.7536C12.5745 18.7441 12.5905 18.7353 12.6058 18.7249C12.622 18.7142 12.6372 18.7021 12.6527 18.6905C12.6657 18.6808 12.679 18.6718 12.6916 18.6614C12.7182 18.6396 12.7436 18.6166 12.7679 18.5924C12.7691 18.5913 12.7704 18.5904 12.7715 18.5892L17.8625 13.4985C18.2886 13.0724 18.2886 12.3817 17.8625 11.9557C17.4366 11.5297 16.7458 11.5297 16.3198 11.9556L13.091 15.1842V1.81796C13.091 1.21549 12.6025 0.727051 12.0001 0.727051C11.3976 0.727051 10.9092 1.21549 10.9092 1.81796V15.1841L7.68065 11.9557C7.25469 11.5297 6.56392 11.5297 6.13789 11.9557C5.71185 12.3817 5.71185 13.0724 6.13789 13.4985L11.2286 18.589Z" fill="#0A0A0A"/>
<path d="M22.9091 11.6362C22.3066 11.6362 21.8182 12.1247 21.8182 12.7271V21.0908H2.18182V12.7271C2.18182 12.1247 1.69338 11.6362 1.09091 11.6362C0.488436 11.6362 0 12.1247 0 12.7271V22.1817C0 22.7842 0.488436 23.2726 1.09091 23.2726H22.9091C23.5116 23.2726 24 22.7842 24 22.1817V12.7271C24 12.1247 23.5116 11.6362 22.9091 11.6362Z" fill="#0A0A0A"/>
</g>
<defs>
<clipPath id="clip0_5528_6702">
<rect width="24" height="24" fill="white"/>
</clipPath>
</defs>
</svg>
