<svg width="51" height="51" viewBox="0 0 51 51" fill="none" xmlns="http://www.w3.org/2000/svg">
<g clip-path="url(#clip0_5531_10009)">
<path fill-rule="evenodd" clip-rule="evenodd" d="M44.4977 30.8246H40.2443V22.3169H44.4977C46.8442 22.3169 48.751 24.2251 48.751 26.5702C48.751 28.9158 46.8442 30.8246 44.4977 30.8246ZM31.2406 28.5392V24.6017H38.825V28.5392H31.2406ZM29.8164 33.9567H28.3206V19.1842H29.8164V33.9567ZM4.34413 32.2573V20.8836H26.8964V32.2573H4.34413ZM6.64767 16.224H8.77429V19.4619H6.64767V16.224ZM22.882 16.224H25.0087V19.4619H22.882V16.224ZM2.92002 33.9567H1.42411V19.1842H2.92002V33.9567ZM44.4977 20.8951H39.5323C39.1405 20.8951 38.825 21.2134 38.825 21.6062V23.18H31.2406V18.4735C31.2406 18.0807 30.9204 17.7624 30.5286 17.7624H27.6085C27.2167 17.7624 26.8965 18.0807 26.8965 18.4735V19.4619H26.433V15.5129C26.433 15.1201 26.1127 14.8018 25.7209 14.8018H22.1701C21.7782 14.8018 21.458 15.1201 21.458 15.5129V19.4619H10.1985V15.5129C10.1985 15.1201 9.87827 14.8018 9.48645 14.8018H5.93552C5.54359 14.8018 5.22346 15.1201 5.22346 15.5129V19.4619H4.34413V18.4735C4.34413 18.0807 4.02391 17.7624 3.63208 17.7624H0.712055C0.320125 17.7624 0 18.0807 0 18.4735V34.6674C0 35.0592 0.320227 35.3785 0.712055 35.3785H3.63208C4.02401 35.3785 4.34413 35.0593 4.34413 34.6674V33.6791H26.8964V34.6674C26.8964 35.0592 27.2166 35.3785 27.6084 35.3785H30.5285C30.9203 35.3785 31.2405 35.0593 31.2405 34.6674V29.961H38.8249V31.5352C38.8249 31.927 39.1404 32.2463 39.5322 32.2463H44.4976C47.6278 32.2463 50.175 29.7001 50.175 26.5703C50.1751 23.4409 47.6279 20.8951 44.4977 20.8951ZM44.4977 28.2682C45.4344 28.2682 46.1991 27.5064 46.1991 26.5702C46.1991 25.634 45.4344 24.8727 44.4977 24.8727C43.561 24.8727 42.8011 25.634 42.8011 26.5702C42.8011 27.5064 43.561 28.2682 44.4977 28.2682ZM44.4977 23.4504C42.7772 23.4504 41.377 24.8501 41.377 26.5702C41.377 28.2907 42.7772 29.69 44.4977 29.69C46.2182 29.69 47.6184 28.2907 47.6184 26.5702C47.6184 24.8502 46.2182 23.4504 44.4977 23.4504Z" fill="#9D0A0E"/>
</g>
<defs>
<clipPath id="clip0_5531_10009">
<rect width="50.175" height="50.18" fill="white"/>
</clipPath>
</defs>
</svg>
