<svg width="50" height="50" viewBox="0 0 50 50" fill="none" xmlns="http://www.w3.org/2000/svg">
<path d="M30.4909 36.277L24.6311 37.9962C24.6305 37.9949 24.6297 37.9937 24.6291 37.9925C24.2635 37.3593 23.6752 36.9068 22.9727 36.7185L18.7262 35.5809C15.585 33.3925 13.8088 33.9895 11.2743 35.2289C10.1664 35.7706 9.04111 36.3068 8.02588 36.7872L7.88096 36.4393C7.52705 35.5894 6.54766 35.1851 5.69756 35.5384L3.38389 36.4991C2.96982 36.6711 2.64814 36.9926 2.47832 37.4044C2.3084 37.8162 2.30976 38.271 2.48223 38.685L6.4 48.0927C6.6668 48.7337 7.28984 49.1211 7.94482 49.1211C8.15801 49.1211 8.37451 49.0801 8.5833 48.9934L10.8969 48.0326C11.3109 47.8606 11.6326 47.5392 11.8024 47.1273C11.9724 46.7156 11.9711 46.2609 11.7986 45.8469L11.6147 45.4054L12.939 44.7615C13.4463 44.5149 13.935 44.4731 14.4766 44.6306L19.289 46.0279C19.6652 46.1371 20.0519 46.1838 20.4427 46.1838C21.7602 46.1837 23.1222 45.6537 24.2678 45.2079C24.3669 45.1693 24.4641 45.1315 24.5591 45.0949L33.5909 41.6143C35.1546 41.0118 36.1184 39.1043 35.613 37.6123C35.4081 37.0066 34.4324 35.1205 30.4909 36.277ZM10.5388 46.6059C10.5233 46.6429 10.5007 46.6765 10.4722 46.7047C10.4437 46.7328 10.4098 46.755 10.3727 46.77L8.05908 47.7308C7.9847 47.7616 7.90112 47.7617 7.82667 47.731C7.75223 47.7003 7.69301 47.6413 7.66201 47.567L3.74414 38.1593C3.72833 38.1224 3.72 38.0828 3.71963 38.0427C3.71927 38.0026 3.72687 37.9628 3.74199 37.9257C3.75745 37.8887 3.7801 37.8552 3.80861 37.827C3.83713 37.7989 3.87094 37.7767 3.9081 37.7617L6.22187 36.801C6.29627 36.7703 6.37979 36.7703 6.45419 36.801C6.52858 36.8317 6.58778 36.8906 6.61885 36.9648L10.5367 46.3725C10.5686 46.4491 10.5692 46.5321 10.5388 46.6059ZM33.0996 40.3386L24.0678 43.8191C23.9713 43.8563 23.8726 43.8947 23.7721 43.9339C22.4793 44.437 20.8702 45.0633 19.6704 44.715L14.858 43.3177C13.9958 43.0675 13.1491 43.1394 12.3413 43.532L11.0885 44.1412L8.55205 38.0507C9.58662 37.5614 10.7392 37.0124 11.8748 36.457C14.1632 35.338 15.3809 34.8841 18.0368 36.7673C18.1029 36.8142 18.177 36.849 18.2553 36.87L22.6188 38.0392C22.9687 38.1329 23.262 38.359 23.445 38.676C23.628 38.993 23.6771 39.3601 23.5834 39.71C23.4897 40.0598 23.2636 40.3532 22.9466 40.5362C22.6297 40.7192 22.2625 40.7684 21.9126 40.6746L16.1137 39.1208C15.9388 39.0746 15.7527 39.0996 15.5962 39.1903C15.4397 39.281 15.3256 39.4301 15.2787 39.6048C15.2319 39.7795 15.2563 39.9657 15.3465 40.1225C15.4366 40.2793 15.5853 40.394 15.7599 40.4414L21.5588 41.9952C22.2614 42.1837 22.9972 42.0857 23.6303 41.7202C24.2635 41.3546 24.7158 40.7663 24.9041 40.0638C24.9705 39.8158 25.0014 39.5638 24.9974 39.3135L30.8759 37.5889C32.7476 37.0398 34.0345 37.2125 34.3185 38.0508C34.5636 38.7748 34.0493 39.9726 33.0996 40.3386ZM47.518 11.3151L43.6001 1.90742C43.2461 1.05761 42.2666 0.653708 41.4167 1.00654L39.103 1.96728H39.1029C38.6889 2.13925 38.3673 2.46074 38.1975 2.87256C38.0275 3.28437 38.0289 3.73916 38.2014 4.15302L38.3853 4.59463L37.0608 5.23847C36.5537 5.48515 36.0652 5.52685 35.5233 5.36953L30.7109 3.97216C29.0663 3.49472 27.2177 4.21396 25.7323 4.79209C25.6331 4.83066 25.5358 4.86855 25.4407 4.90517L16.4091 8.38564C14.8453 8.98818 13.8815 10.8958 14.387 12.3878C14.592 12.9934 15.5678 14.8791 19.5093 13.7229L25.3691 12.0038C25.3698 12.0051 25.3706 12.0062 25.3712 12.0075C25.7368 12.6407 26.3251 13.0932 27.0276 13.2813L31.274 14.4192C32.789 15.4747 33.9864 15.8822 35.1047 15.8822C36.3049 15.8822 37.4139 15.4127 38.7261 14.771C39.8316 14.2304 40.9293 13.7071 41.9744 13.2127L42.1192 13.5605C42.3862 14.2017 43.0093 14.5891 43.6644 14.5891C43.8775 14.5891 44.094 14.548 44.3027 14.4614L46.6163 13.5007C47.0304 13.3287 47.352 13.0072 47.5219 12.5954C47.6917 12.1838 47.6904 11.7291 47.518 11.3151ZM38.1252 13.5429C35.8369 14.6618 34.6192 15.1161 31.9631 13.2327C31.8969 13.1858 31.823 13.1511 31.7446 13.1301L27.3812 11.9608C27.0313 11.8672 26.7379 11.641 26.5549 11.324C26.3719 11.007 26.3228 10.6399 26.4165 10.2901C26.5103 9.94033 26.7363 9.64687 27.0533 9.46386C27.3702 9.28086 27.7374 9.23164 28.0873 9.32548L33.8862 10.8793C34.0613 10.9261 34.2479 10.9014 34.4048 10.8108C34.5618 10.7202 34.6764 10.5709 34.7234 10.3959C34.7704 10.2208 34.7458 10.0342 34.6551 9.87718C34.5645 9.72017 34.4152 9.60561 34.24 9.55869L28.4411 8.00498C27.7387 7.8167 27.0029 7.91445 26.3697 8.27988C25.7365 8.6455 25.2841 9.23379 25.0958 9.93623C25.03 10.1808 24.9986 10.4334 25.0025 10.6866L19.124 12.4112C17.2523 12.9602 15.9654 12.7876 15.6815 11.9493C15.4363 11.2254 15.9506 10.0274 16.9002 9.66152L25.9319 6.18105C26.0285 6.14384 26.1271 6.10547 26.2277 6.06631C27.5206 5.56318 29.1293 4.93691 30.3293 5.28515L35.1417 6.68252C36.004 6.93281 36.8508 6.86074 37.6584 6.46816L38.9114 5.85898L41.4478 11.9495C40.3811 12.4538 39.2581 12.989 38.1252 13.5429ZM46.258 12.0741C46.2426 12.1111 46.2199 12.1446 46.1914 12.1728C46.1629 12.2009 46.1291 12.2231 46.0919 12.2381L43.7783 13.1988C43.7039 13.2295 43.6204 13.2296 43.546 13.1989C43.4716 13.1682 43.4123 13.1093 43.3812 13.0351L39.4635 3.62724C39.4477 3.59041 39.4394 3.55082 39.439 3.51076C39.4387 3.4707 39.4462 3.43096 39.4613 3.39384C39.4768 3.35687 39.4994 3.32334 39.528 3.29518C39.5565 3.26702 39.5903 3.24479 39.6274 3.22978L41.9411 2.26904C42.0155 2.23819 42.099 2.2381 42.1735 2.26881C42.2479 2.29951 42.3071 2.3585 42.3381 2.43281L46.256 11.8404C46.2877 11.9173 46.2885 12.0002 46.258 12.0741ZM25.411 14.5506C20.9185 14.5506 17.2634 18.2056 17.2634 22.6982C17.2634 24.8193 18.0788 26.7531 19.4118 28.2043L17.4277 31.6409C17.3619 31.7548 17.3304 31.8853 17.3369 32.0167C17.3435 32.1481 17.3878 32.2749 17.4646 32.3817C17.5414 32.4885 17.6474 32.5709 17.7698 32.619C17.8923 32.6671 18.026 32.6788 18.155 32.6527L20.5887 32.1615L21.3801 34.5148C21.4257 34.6506 21.5128 34.7685 21.6291 34.8521C21.7454 34.9356 21.8849 34.9805 22.0281 34.9805C22.1481 34.9804 22.2659 34.9488 22.3698 34.8888C22.4737 34.8288 22.56 34.7425 22.62 34.6387L24.8234 30.8223C25.0178 30.8362 25.2132 30.8458 25.4109 30.8458C25.6088 30.8458 25.8042 30.8362 25.9986 30.8223L28.202 34.6387C28.2677 34.7526 28.365 34.8451 28.482 34.9052C28.5991 34.9652 28.731 34.9902 28.8619 34.9771C28.9928 34.964 29.1172 34.9135 29.22 34.8315C29.3229 34.7495 29.3999 34.6395 29.4419 34.5148L30.2333 32.1615L32.667 32.6527C32.7959 32.6787 32.9297 32.667 33.0521 32.6189C33.1745 32.5708 33.2805 32.4884 33.3573 32.3816C33.434 32.2748 33.4784 32.1481 33.4849 32.0167C33.4915 31.8853 33.46 31.7548 33.3942 31.6409L31.4102 28.2043C32.7432 26.7531 33.5586 24.8193 33.5586 22.6982C33.5587 18.2056 29.9036 14.5506 25.411 14.5506ZM22.1933 32.6436L21.6924 31.1543C21.6393 30.9964 21.5305 30.8634 21.3863 30.7801C21.2421 30.6969 21.0724 30.6691 20.9092 30.7021L19.3689 31.0131L20.4443 29.1504C21.3039 29.8137 22.2978 30.3107 23.3793 30.5893L22.1933 32.6436ZM18.6306 22.6982C18.6306 18.9595 21.6722 15.9178 25.411 15.9178C29.1499 15.9178 32.1915 18.9595 32.1915 22.6982C32.1915 26.437 29.1499 29.4787 25.411 29.4787C21.6722 29.4787 18.6306 26.437 18.6306 22.6982ZM29.9129 30.7021C29.7497 30.6692 29.5801 30.697 29.4359 30.7803C29.2917 30.8635 29.1828 30.9965 29.1297 31.1543L28.6288 32.6436L27.4429 30.5893C28.5242 30.3107 29.5182 29.8137 30.3777 29.1504L31.4531 31.013L29.9129 30.7021ZM25.411 17.5149C22.5528 17.5149 20.2276 19.8402 20.2276 22.6983C20.2276 25.5564 22.5529 27.8816 25.411 27.8816C28.2691 27.8816 30.5944 25.5563 30.5944 22.6983C30.5944 19.8401 28.2692 17.5149 25.411 17.5149ZM25.411 26.5144C23.3067 26.5144 21.5948 24.8025 21.5948 22.6983C21.5948 20.594 23.3067 18.8821 25.411 18.8821C27.5153 18.8821 29.2272 20.594 29.2272 22.6983C29.2272 24.8025 27.5153 26.5144 25.411 26.5144ZM27.7388 20.8636C27.8669 20.9918 27.9389 21.1657 27.9389 21.347C27.9389 21.5283 27.8669 21.7021 27.7388 21.8304L24.8546 24.7145C24.7263 24.8427 24.5525 24.9147 24.3712 24.9147L24.3597 24.9146C24.268 24.9131 24.1775 24.8931 24.0937 24.8558C24.0099 24.8186 23.9344 24.7649 23.8718 24.6978L22.5812 23.3168C22.5199 23.2512 22.4721 23.1742 22.4405 23.0901C22.409 23.0061 22.3944 22.9166 22.3974 22.8269C22.4004 22.7372 22.4211 22.6489 22.4583 22.5672C22.4954 22.4855 22.5483 22.4119 22.6139 22.3506C22.6794 22.2893 22.7565 22.2415 22.8405 22.21C22.9246 22.1784 23.014 22.1637 23.1037 22.1668C23.1935 22.1698 23.2817 22.1905 23.3634 22.2277C23.4452 22.2648 23.5188 22.3177 23.5801 22.3833L24.3878 23.2477L26.772 20.8635C26.9002 20.7353 27.0741 20.6634 27.2554 20.6634C27.4367 20.6634 27.6105 20.7354 27.7388 20.8636Z" fill="white"/>
</svg>
