<svg width="32" height="32" viewBox="0 0 32 32" fill="none" xmlns="http://www.w3.org/2000/svg">
<rect width="32" height="32" rx="16" fill="#9D0A0E"/>
<g clip-path="url(#clip0_6626_9700)">
<path d="M19.6689 8H12.3311C9.94287 8 8 9.94287 8 12.3311V19.669C8 22.0571 9.94287 24 12.3311 24H19.669C22.0571 24 24 22.0571 24 19.669V12.3311C24 9.94287 22.0571 8 19.6689 8ZM16 20.3749C13.5876 20.3749 11.6251 18.4124 11.6251 16C11.6251 13.5876 13.5876 11.6251 16 11.6251C18.4124 11.6251 20.3749 13.5876 20.3749 16C20.3749 18.4124 18.4124 20.3749 16 20.3749ZM20.4795 12.6569C19.7666 12.6569 19.1868 12.077 19.1868 11.3641C19.1868 10.6512 19.7666 10.0713 20.4795 10.0713C21.1924 10.0713 21.7723 10.6512 21.7723 11.3641C21.7723 12.077 21.1923 12.6569 20.4795 12.6569Z" fill="white"/>
<path d="M15.9999 12.563C14.1049 12.563 12.563 14.1047 12.563 15.9999C12.563 17.8949 14.1049 19.4368 15.9999 19.4368C17.895 19.4368 19.4367 17.8949 19.4367 15.9999C19.4367 14.1047 17.895 12.563 15.9999 12.563ZM20.4794 11.0093C20.2838 11.0093 20.1246 11.1685 20.1246 11.364C20.1246 11.5596 20.2838 11.7188 20.4794 11.7188C20.675 11.7188 20.8342 11.5597 20.8342 11.364C20.8342 11.1684 20.675 11.0093 20.4794 11.0093Z" fill="white"/>
</g>
<defs>
<clipPath id="clip0_6626_9700">
<rect width="16" height="16" fill="white" transform="translate(8 8)"/>
</clipPath>
</defs>
</svg>
