<svg width="56" height="56" viewBox="0 0 56 56" fill="none" xmlns="http://www.w3.org/2000/svg">
<rect width="56" height="56" rx="28" fill="#9D0A0E"/>
<g clip-path="url(#clip0_6928_590)">
<path d="M33.5034 16H22.4966C18.9143 16 16 18.9143 16 22.4966V33.5036C16 37.0856 18.9143 40 22.4966 40H33.5036C37.0856 40 40 37.0856 40 33.5036V22.4966C40 18.9143 37.0856 16 33.5034 16ZM38.593 33.5036C38.593 36.3098 36.3098 38.593 33.5034 38.593H22.4966C19.6901 38.593 17.407 36.3098 17.407 33.5036V22.4966C17.407 19.6901 19.6901 17.407 22.4966 17.407H33.5036C36.3098 17.407 38.593 19.6901 38.593 22.4966V33.5036Z" fill="white"/>
<path d="M27.9998 21.4376C24.3813 21.4376 21.4375 24.3814 21.4375 27.9999C21.4375 31.6185 24.3813 34.5623 27.9998 34.5623C31.6184 34.5623 34.5621 31.6185 34.5621 27.9999C34.5621 24.3814 31.6184 21.4376 27.9998 21.4376ZM27.9998 33.1553C25.1573 33.1553 22.8445 30.8427 22.8445 27.9999C22.8445 25.1574 25.1573 22.8446 27.9998 22.8446C30.8425 22.8446 33.1551 25.1574 33.1551 27.9999C33.1551 30.8427 30.8425 33.1553 27.9998 33.1553ZM34.7191 19.1071C33.6497 19.1071 32.78 19.977 32.78 21.0461C32.78 22.1155 33.6497 22.9854 34.7191 22.9854C35.7884 22.9854 36.6583 22.1155 36.6583 21.0462C36.6583 19.9769 35.7884 19.1071 34.7191 19.1071ZM34.7191 21.5783C34.4257 21.5783 34.1869 21.3395 34.1869 21.0461C34.1869 20.7526 34.4257 20.5141 34.7191 20.5141C35.0125 20.5141 35.2513 20.7526 35.2513 21.0461C35.2513 21.3395 35.0125 21.5783 34.7191 21.5783Z" fill="white"/>
</g>
<defs>
<clipPath id="clip0_6928_590">
<rect width="24" height="24" fill="white" transform="translate(16 16)"/>
</clipPath>
</defs>
</svg>
