<svg width="62" height="61" viewBox="0 0 62 61" fill="none" xmlns="http://www.w3.org/2000/svg">
<path fill-rule="evenodd" clip-rule="evenodd" d="M35.1582 18.5593L39.4612 29.8796L43.7643 18.5593H35.1582ZM37.7214 28.9186L27.8989 18.5593H33.7834L37.7209 28.9186H37.7214ZM39.9394 32.1166C39.8792 32.1834 39.8055 32.2369 39.7233 32.2736C39.6411 32.3102 39.5521 32.3292 39.4621 32.3293C39.3721 32.3295 39.283 32.3107 39.2007 32.2742C39.1184 32.2378 39.0446 32.1845 38.9842 32.1177L25.9683 18.3905C25.8946 18.3228 25.8376 18.2389 25.802 18.1454C25.7663 18.0519 25.7528 17.9513 25.7627 17.8517C25.7725 17.7521 25.8054 17.6562 25.8587 17.5715C25.9121 17.4868 25.9844 17.4157 26.0699 17.3637L32.5597 12.7306C32.6683 12.653 32.7985 12.6113 32.9321 12.6115L45.9904 12.6098C46.1411 12.6096 46.287 12.6624 46.4027 12.7591L52.8795 17.3829C52.9567 17.4353 53.0217 17.5038 53.0698 17.5838C53.1179 17.6638 53.148 17.7532 53.158 17.846C53.1681 17.9388 53.1578 18.0326 53.1279 18.121C53.098 18.2094 53.0492 18.2903 52.985 18.3579L39.9394 32.1167V32.1166ZM45.139 18.5591H51.0235L41.2011 28.9185L45.1386 18.5591H45.139ZM33.8791 17.2709L36.0926 13.8979H33.1353L28.4105 17.2709H33.8791ZM42.8298 13.8979L45.0433 17.2709H50.512L45.7872 13.8979H42.8298ZM43.5043 17.2709L41.2907 13.8979H37.6316L35.4182 17.2709H43.5043ZM11.4905 37.9884C11.3871 37.8404 11.2293 37.7395 11.0517 37.7075C10.8741 37.6756 10.691 37.7153 10.5426 37.818L4.45622 42.0357C4.30833 42.1391 4.20741 42.2969 4.1755 42.4745C4.1436 42.6521 4.1833 42.8352 4.28594 42.9836L13.2324 55.8937C13.3358 56.0416 13.4936 56.1426 13.6712 56.1746C13.8489 56.2065 14.032 56.1668 14.1804 56.0642L20.2667 51.8464C20.4146 51.7429 20.5155 51.5852 20.5474 51.4075C20.5793 51.2299 20.5396 51.0469 20.437 50.8984C17.4564 46.5963 14.4743 42.293 11.4905 37.9884ZM13.1098 38.0704C23.7367 32.4447 24.0399 32.5696 29.5858 34.8615C32.2546 35.9933 34.9848 36.9744 37.7635 37.8004C38.5205 38.0296 39.1903 38.483 39.6844 39.1007C40.1784 39.7184 40.4736 40.4714 40.5309 41.2604L49.9437 35.7537C51.8685 34.6278 53.6802 34.6965 54.9235 35.3819C55.8864 35.9127 56.5662 36.8529 56.6371 37.9654C56.712 39.1413 56.1051 40.4395 54.5358 41.4686C53.6218 42.0684 52.4159 42.96 51.0332 43.9827C45.803 47.8515 38.1182 53.5359 34.246 52.3362L22.4744 48.69C22.3341 48.6441 22.1825 48.646 22.0433 48.6952C21.9041 48.7444 21.7851 48.8383 21.7048 48.9622L21.1926 49.7342L21.4936 50.1687C21.7893 50.5976 21.903 51.1261 21.8098 51.6386C21.7166 52.1511 21.4241 52.6058 20.9963 52.9031L14.91 57.1209C14.4812 57.4165 13.9526 57.5302 13.4401 57.4369C12.9276 57.3437 12.4729 57.0511 12.1757 56.6233L3.22926 43.7132C2.93359 43.2844 2.81992 42.7558 2.91314 42.2434C3.00636 41.7309 3.29887 41.2762 3.72661 40.979L9.81286 36.7613C10.2417 36.4656 10.7703 36.3519 11.2828 36.4452C11.7953 36.5384 12.25 36.831 12.5472 37.2588L13.1097 38.0706L13.1098 38.0704ZM25.6481 42.4481L35.5543 45.255C36.5443 45.5366 37.6052 45.42 38.5104 44.9302C39.3345 44.4875 39.9693 43.7601 40.2965 42.8838L50.5925 36.8603C52.0732 35.9941 53.414 36.0177 54.3041 36.5088C54.8821 36.8275 55.3107 37.3721 55.3536 38.0458C55.4004 38.7911 54.9598 39.6513 53.8311 40.3915C52.9233 40.9868 51.6865 41.9016 50.2686 42.951C45.2507 46.6627 37.8777 52.1164 34.624 51.1082L22.8518 47.4624C22.4473 47.3341 22.0119 47.3416 21.612 47.4838C21.2121 47.6259 20.8697 47.895 20.637 48.2499L20.404 48.5956L13.8473 39.1345C23.8072 33.8644 24.1035 33.9854 29.0978 36.0493C31.8061 37.1982 34.5765 38.1945 37.3962 39.0334C37.8886 39.178 38.327 39.4656 38.6558 39.8596C38.9846 40.2536 39.189 40.7364 39.2431 41.2467C39.2972 41.7571 39.1985 42.272 38.9596 42.7262C38.7208 43.1804 38.3524 43.5534 37.9013 43.7981C37.2887 44.1292 36.5709 44.2079 35.9011 44.0172L25.9948 41.2102C25.9135 41.1874 25.8286 41.1809 25.7447 41.1909C25.6609 41.2009 25.5799 41.2274 25.5063 41.2688C25.4327 41.3101 25.368 41.3656 25.3159 41.4319C25.2637 41.4983 25.2251 41.5743 25.2023 41.6556C25.1795 41.7369 25.173 41.8218 25.183 41.9056C25.1931 41.9894 25.2195 42.0705 25.2609 42.1441C25.3022 42.2176 25.3577 42.2824 25.4241 42.3345C25.4904 42.3867 25.5664 42.4253 25.6477 42.4481H25.6481ZM40.1052 7.43747C40.1085 7.52411 40.0943 7.61054 40.0635 7.69156C40.0326 7.77259 39.9857 7.84655 39.9255 7.90902C39.8654 7.97149 39.7933 8.02119 39.7135 8.05513C39.6337 8.08908 39.5479 8.10658 39.4612 8.10658C39.3745 8.10658 39.2886 8.08908 39.2089 8.05513C39.1291 8.02119 39.0569 7.97149 38.9968 7.90902C38.9367 7.84655 38.8898 7.77259 38.8589 7.69156C38.828 7.61054 38.8138 7.52411 38.8171 7.43747V3.70036C38.8138 3.61371 38.828 3.52729 38.8589 3.44626C38.8898 3.36524 38.9367 3.29127 38.9968 3.2288C39.0569 3.16633 39.1291 3.11664 39.2089 3.08269C39.2886 3.04875 39.3745 3.03125 39.4612 3.03125C39.5479 3.03125 39.6337 3.04875 39.7135 3.08269C39.7933 3.11664 39.8654 3.16633 39.9255 3.2288C39.9857 3.29127 40.0326 3.36524 40.0635 3.44626C40.0943 3.52729 40.1085 3.61371 40.1052 3.70036V7.43747ZM30.9026 9.55774C30.9881 9.7052 31.0115 9.88057 30.9677 10.0453C30.9238 10.21 30.8164 10.3505 30.6689 10.436C30.5214 10.5215 30.3461 10.5449 30.1814 10.501C30.0166 10.4572 29.8761 10.3497 29.7906 10.2023L27.9215 6.96579C27.836 6.81831 27.8126 6.64293 27.8565 6.47821C27.9003 6.31349 28.0078 6.17294 28.1553 6.08747C28.3028 6.002 28.4781 5.97861 28.6429 6.02246C28.8076 6.0663 28.9481 6.17378 29.0336 6.32126L30.9022 9.55774H30.9026ZM23.9938 15.996C24.1398 16.0816 24.246 16.2213 24.2894 16.3848C24.3328 16.5483 24.3099 16.7223 24.2256 16.8689C24.1413 17.0156 24.0025 17.123 23.8394 17.1678C23.6763 17.2126 23.5021 17.1912 23.3547 17.1081L20.1182 15.2392C19.973 15.1533 19.8676 15.0137 19.8246 14.8506C19.7817 14.6874 19.8047 14.514 19.8887 14.3677C19.9728 14.2215 20.111 14.1142 20.2736 14.0692C20.4362 14.0241 20.6099 14.045 20.7572 14.1271L23.9938 15.9957V15.996ZM55.5677 17.1081C55.4203 17.1903 55.2466 17.2111 55.084 17.1661C54.9215 17.121 54.7832 17.0138 54.6992 16.8675C54.6151 16.7213 54.5921 16.5478 54.635 16.3847C54.678 16.2216 54.7835 16.0819 54.9286 15.996L58.1651 14.1275C58.3124 14.0453 58.4862 14.0245 58.6488 14.0695C58.8113 14.1146 58.9496 14.2218 59.0336 14.3681C59.1177 14.5143 59.1407 14.6878 59.0977 14.8509C59.0548 15.014 58.9493 15.1537 58.8041 15.2396L55.5677 17.1081ZM49.1324 10.2018C49.047 10.3493 48.9064 10.4568 48.7417 10.5006C48.577 10.5444 48.4016 10.5211 48.2541 10.4356C48.1066 10.3501 47.9991 10.2096 47.9553 10.0449C47.9115 9.88014 47.9348 9.70475 48.0203 9.55727L49.8884 6.32126C49.9739 6.1738 50.1144 6.06633 50.2791 6.0225C50.4438 5.97866 50.6192 6.00206 50.7667 6.08753C50.9141 6.173 51.0216 6.31354 51.0654 6.47825C51.1093 6.64296 51.0859 6.81833 51.0004 6.96579L49.1324 10.2018ZM15.1527 50.4979C15.3198 50.4979 15.4832 50.5474 15.6221 50.6403C15.761 50.7331 15.8693 50.8651 15.9332 51.0194C15.9972 51.1738 16.0139 51.3437 15.9813 51.5076C15.9487 51.6714 15.8682 51.822 15.7501 51.9401C15.6319 52.0583 15.4814 52.1387 15.3175 52.1713C15.1536 52.2039 14.9837 52.1871 14.8294 52.1232C14.675 52.0592 14.5431 51.9509 14.4503 51.812C14.3574 51.673 14.3079 51.5097 14.3079 51.3426C14.3079 51.2316 14.3298 51.1218 14.3722 51.0193C14.4147 50.9168 14.4769 50.8237 14.5553 50.7452C14.6338 50.6668 14.7269 50.6046 14.8294 50.5621C14.9319 50.5197 15.0418 50.4979 15.1527 50.4979ZM15.1527 49.2097C15.6462 49.2096 16.1244 49.3807 16.5058 49.6937C16.8873 50.0067 17.1484 50.4422 17.2447 50.9262C17.341 51.4101 17.2666 51.9125 17.034 52.3477C16.8014 52.7829 16.4252 53.124 15.9693 53.3128C15.5135 53.5017 15.0062 53.5267 14.534 53.3835C14.0618 53.2403 13.6539 52.9378 13.3797 52.5276C13.1055 52.1173 12.9821 51.6247 13.0304 51.1336C13.0787 50.6426 13.2958 50.1834 13.6447 49.8345C13.8425 49.6361 14.0775 49.4788 14.3364 49.3716C14.5952 49.2644 14.8726 49.2093 15.1527 49.2097Z" fill="#9D0A0E"/>
</svg>
