<svg width="62" height="61" viewBox="0 0 62 61" fill="none" xmlns="http://www.w3.org/2000/svg">
<path d="M36.4492 8.1775C36.5369 8.20335 36.6278 8.21661 36.7192 8.21688C36.9207 8.21669 37.1168 8.15157 37.2784 8.03116C37.44 7.91076 37.5586 7.74149 37.6164 7.54844L38.7058 3.92125C38.7411 3.80331 38.7529 3.67956 38.7404 3.55707C38.7279 3.43458 38.6914 3.31576 38.633 3.20737C38.5746 3.09899 38.4954 3.00317 38.3999 2.92539C38.3045 2.84761 38.1946 2.7894 38.0767 2.75406C37.9588 2.71873 37.835 2.70697 37.7125 2.71946C37.59 2.73195 37.4712 2.76845 37.3628 2.82686C37.2544 2.88528 37.1586 2.96446 37.0808 3.05991C37.0031 3.15535 36.9448 3.26518 36.9095 3.38313L35.8201 7.01031C35.7848 7.12826 35.773 7.25201 35.7855 7.3745C35.798 7.49699 35.8345 7.61582 35.8929 7.7242C35.9513 7.83259 36.0305 7.9284 36.126 8.00618C36.2214 8.08396 36.3313 8.14217 36.4492 8.1775ZM42.6301 9.6775C42.8485 9.79627 43.105 9.82349 43.3434 9.75317C43.5818 9.68285 43.7825 9.52075 43.9014 9.3025L45.7164 5.95938C45.7752 5.85116 45.8121 5.73242 45.825 5.60994C45.8379 5.48747 45.8265 5.36365 45.7916 5.24556C45.7566 5.12747 45.6987 5.01742 45.6213 4.92169C45.5438 4.82597 45.4482 4.74644 45.34 4.68766C45.2318 4.62887 45.113 4.59197 44.9906 4.57907C44.8681 4.56617 44.7443 4.57753 44.6262 4.61248C44.5081 4.64743 44.398 4.7053 44.3023 4.78278C44.2066 4.86027 44.1271 4.95585 44.0683 5.06406L42.2533 8.40625C42.1945 8.51446 42.1577 8.63319 42.1448 8.75565C42.132 8.8781 42.1434 9.00189 42.1784 9.11994C42.2134 9.23799 42.2713 9.34799 42.3488 9.44365C42.4263 9.53932 42.5219 9.61878 42.6301 9.6775ZM49.6492 12.7347C49.7858 12.7348 49.9207 12.7051 50.0446 12.6476C50.1685 12.5901 50.2783 12.5062 50.3664 12.4019L52.8311 9.475C52.9123 9.38113 52.974 9.27207 53.0127 9.15415C53.0514 9.03623 53.0663 8.9118 53.0566 8.78807C53.0468 8.66435 53.0126 8.54379 52.9559 8.43339C52.8992 8.32299 52.8211 8.22495 52.7263 8.14495C52.6314 8.06496 52.5215 8.0046 52.4031 7.96738C52.2847 7.93016 52.1601 7.91682 52.0365 7.92813C51.9129 7.93944 51.7928 7.97518 51.6831 8.03328C51.5735 8.09138 51.4764 8.17067 51.3976 8.26656L48.933 11.1934C48.818 11.33 48.7444 11.4965 48.7209 11.6735C48.6973 11.8504 48.7248 12.0304 48.8 12.1923C48.8752 12.3542 48.9951 12.4912 49.1455 12.5873C49.296 12.6834 49.4707 12.7345 49.6492 12.7347ZM55.367 17.3922C55.5875 17.3922 55.8009 17.3145 55.9698 17.1728L58.8761 14.7353C59.0606 14.5738 59.1746 14.3464 59.1934 14.1019C59.2123 13.8574 59.1346 13.6152 58.977 13.4273C58.8194 13.2394 58.5944 13.1208 58.3504 13.0968C58.1063 13.0728 57.8625 13.1454 57.6714 13.2991L54.7651 15.7366C54.6181 15.8603 54.5127 16.0263 54.4631 16.212C54.4136 16.3977 54.4223 16.5941 54.488 16.7747C54.5538 16.9552 54.6735 17.1112 54.8309 17.2215C54.9883 17.3318 55.1758 17.3911 55.368 17.3913L55.367 17.3922ZM11.5389 12.4019C11.6177 12.4978 11.7147 12.5771 11.8244 12.6352C11.9341 12.6933 12.0542 12.729 12.1778 12.7403C12.3014 12.7516 12.426 12.7383 12.5444 12.7011C12.6628 12.6638 12.7726 12.6035 12.8675 12.5235C12.9624 12.4435 13.0405 12.3454 13.0972 12.235C13.1539 12.1247 13.1881 12.0041 13.1978 11.8804C13.2076 11.7566 13.1927 11.6322 13.154 11.5143C13.1153 11.3964 13.0535 11.2873 12.9723 11.1934L10.5076 8.26656C10.3463 8.08005 10.118 7.96461 9.87221 7.94523C9.62638 7.92586 9.38282 8.00412 9.19428 8.16306C9.00575 8.322 8.88743 8.54882 8.86495 8.79438C8.84248 9.03994 8.91765 9.28447 9.0742 9.475L11.5389 12.4019ZM18.0039 9.30063C18.0626 9.40884 18.1421 9.50443 18.2377 9.58194C18.3334 9.65945 18.4434 9.71735 18.5615 9.75235C18.6795 9.78734 18.8033 9.79875 18.9257 9.7859C19.0482 9.77306 19.1669 9.73623 19.2751 9.6775C19.3834 9.61877 19.4789 9.53931 19.5565 9.44364C19.634 9.34797 19.6919 9.23798 19.7269 9.11993C19.7619 9.00188 19.7733 8.8781 19.7604 8.75565C19.7476 8.63319 19.7107 8.51447 19.652 8.40625L17.837 5.06219C17.7183 4.84363 17.5176 4.68119 17.2791 4.6106C17.0406 4.54001 16.7838 4.56706 16.5653 4.68578C16.3467 4.80451 16.1843 5.00519 16.1137 5.24368C16.0431 5.48218 16.0702 5.73894 16.1889 5.9575L18.0039 9.30063ZM5.96545 17.1962C6.06238 17.2761 6.17437 17.3357 6.29478 17.3715C6.41519 17.4073 6.54156 17.4185 6.66638 17.4044C6.7912 17.3904 6.91193 17.3514 7.0214 17.2898C7.13087 17.2283 7.22685 17.1453 7.30363 17.0459C7.38042 16.9465 7.43644 16.8327 7.46838 16.7112C7.50032 16.5897 7.50753 16.463 7.48957 16.3387C7.47161 16.2144 7.42885 16.095 7.36383 15.9875C7.29881 15.88 7.21286 15.7867 7.11107 15.7131L4.33795 13.5709C4.24102 13.4911 4.12903 13.4315 4.00862 13.3957C3.88821 13.3599 3.76184 13.3487 3.63702 13.3628C3.5122 13.3768 3.39147 13.4157 3.282 13.4773C3.17253 13.5389 3.07655 13.6219 2.99977 13.7213C2.92298 13.8207 2.86696 13.9345 2.83502 14.056C2.80308 14.1775 2.79587 14.3041 2.81383 14.4285C2.83179 14.5528 2.87455 14.6722 2.93957 14.7797C3.00459 14.8871 3.09054 14.9805 3.19233 15.0541L5.96545 17.1962ZM24.2889 7.54844C24.3467 7.74149 24.4652 7.91076 24.6268 8.03116C24.7884 8.15157 24.9845 8.21669 25.1861 8.21688C25.2775 8.21661 25.3684 8.20335 25.4561 8.1775C25.574 8.14217 25.6839 8.08396 25.7793 8.00618C25.8748 7.9284 25.9539 7.83259 26.0124 7.7242C26.0708 7.61582 26.1073 7.49699 26.1198 7.3745C26.1322 7.25201 26.1205 7.12826 26.0851 7.01031L24.9958 3.38313C24.9604 3.26518 24.9022 3.15535 24.8244 3.05991C24.7467 2.96446 24.6508 2.88528 24.5425 2.82686C24.4341 2.76845 24.3152 2.73195 24.1928 2.71946C24.0703 2.70697 23.9465 2.71873 23.8286 2.75406C23.7106 2.7894 23.6008 2.84761 23.5054 2.92539C23.4099 3.00317 23.3307 3.09899 23.2723 3.20737C23.2139 3.31576 23.1774 3.43458 23.1649 3.55707C23.1524 3.67956 23.1642 3.80331 23.1995 3.92125L24.2889 7.54844ZM30.9526 7.75C31.2013 7.75 31.4397 7.65123 31.6156 7.47541C31.7914 7.2996 31.8901 7.06114 31.8901 6.8125V3.0625C31.8901 2.81386 31.7914 2.5754 31.6156 2.39959C31.4397 2.22377 31.2013 2.125 30.9526 2.125C30.704 2.125 30.4655 2.22377 30.2897 2.39959C30.1139 2.5754 30.0151 2.81386 30.0151 3.0625V6.8125C30.0151 7.06114 30.1139 7.2996 30.2897 7.47541C30.4655 7.65123 30.704 7.75 30.9526 7.75ZM18.2092 36.8716C13.0349 34.5103 8.49415 30.9559 4.95951 26.5C6.76092 24.25 8.81362 22.2134 11.0776 20.4297C11.2733 20.2762 11.4 20.0512 11.4298 19.8042C11.4596 19.5573 11.3901 19.3086 11.2365 19.113C11.083 18.9173 10.858 18.7906 10.6111 18.7608C10.3642 18.731 10.1155 18.8005 9.91982 18.9541C7.34371 20.9861 5.02782 23.3278 3.02451 25.9263C2.89741 26.0905 2.82844 26.2923 2.82844 26.5C2.82844 26.7077 2.89741 26.9095 3.02451 27.0737C6.81317 32.037 11.7663 35.9904 17.4461 38.5844C17.6732 38.6856 17.9312 38.6924 18.1634 38.6033C18.3956 38.5143 18.5828 38.3367 18.684 38.1095C18.7852 37.8824 18.7921 37.6244 18.703 37.3922C18.614 37.16 18.4363 36.9728 18.2092 36.8716Z" fill="#9D0A0E"/>
<path d="M58.8815 27.0737C59.0086 26.9095 59.0776 26.7077 59.0776 26.5C59.0776 26.2923 59.0086 26.0905 58.8815 25.9263C51.7828 16.7575 41.6024 11.5 30.9524 11.5C24.5252 11.526 18.2399 13.3931 12.8409 16.8803C12.6313 17.0141 12.4834 17.2256 12.4298 17.4684C12.3762 17.7112 12.4212 17.9654 12.5549 18.175C12.6887 18.3846 12.9003 18.5325 13.1431 18.5861C13.3859 18.6397 13.64 18.5947 13.8496 18.4609C16.2289 16.9434 18.795 15.7408 21.4837 14.8834C19.7486 16.293 18.3513 18.0735 17.3946 20.0939C16.4378 22.1144 15.9458 24.3235 15.9548 26.559C15.9638 28.7945 16.4735 30.9996 17.4465 33.0123C18.4195 35.025 19.8311 36.7941 21.5774 38.1897V39.625C20.8315 39.625 20.1162 39.9213 19.5887 40.4488C19.0613 40.9762 18.7649 41.6916 18.7649 42.4375C18.7649 43.1834 19.0613 43.8988 19.5887 44.4262C20.1162 44.9537 20.8315 45.25 21.5774 45.25H40.3274C40.5761 45.25 40.8145 45.3488 40.9904 45.5246C41.1662 45.7004 41.2649 45.9389 41.2649 46.1875C41.2649 46.4361 41.1662 46.6746 40.9904 46.8504C40.8145 47.0262 40.5761 47.125 40.3274 47.125H21.5774C21.3288 47.125 21.0904 47.2238 20.9145 47.3996C20.7387 47.5754 20.6399 47.8139 20.6399 48.0625C20.6399 48.3111 20.7387 48.5496 20.9145 48.7254C21.0904 48.9012 21.3288 49 21.5774 49C21.5774 51.4864 22.5652 53.871 24.3233 55.6291C26.0815 57.3873 28.466 58.375 30.9524 58.375C33.4389 58.375 35.8234 57.3873 37.5816 55.6291C39.3397 53.871 40.3274 51.4864 40.3274 49C40.8714 49.0024 41.4043 48.8463 41.861 48.5508C42.3177 48.2554 42.6785 47.8332 42.8992 47.3361C43.12 46.8389 43.1911 46.2882 43.104 45.7513C43.0169 45.2143 42.7753 44.7144 42.4087 44.3125C42.7753 43.9106 43.0169 43.4107 43.104 42.8737C43.1911 42.3368 43.12 41.7861 42.8992 41.2889C42.6785 40.7918 42.3177 40.3696 41.861 40.0742C41.4043 39.7787 40.8714 39.6226 40.3274 39.625V38.1897C42.0875 36.7929 43.508 35.0154 44.4822 32.9907C45.4565 30.9661 45.9592 28.7469 45.9524 26.5C45.9502 25.423 45.8327 24.3494 45.6018 23.2975C45.5767 23.1762 45.5277 23.061 45.4577 22.9588C45.3878 22.8565 45.2983 22.7691 45.1943 22.7016C45.0904 22.6341 44.9741 22.5879 44.8522 22.5657C44.7303 22.5434 44.6052 22.5456 44.4842 22.572C44.3631 22.5983 44.2485 22.6485 44.1469 22.7195C44.0453 22.7904 43.9588 22.8808 43.8924 22.9854C43.826 23.09 43.781 23.2068 43.76 23.3289C43.7389 23.451 43.7423 23.5761 43.7699 23.6969C43.9724 24.6176 44.0755 25.5573 44.0774 26.5C44.0828 28.536 43.6107 30.5449 42.6989 32.3654C41.7871 34.1858 40.4611 35.7671 38.8274 36.9822C38.711 37.0695 38.6165 37.1827 38.5514 37.3129C38.4863 37.4431 38.4524 37.5866 38.4524 37.7322V39.625H34.7024V32.9875C36.2398 32.1049 37.4131 30.7043 38.0125 29.0361C38.6119 27.3678 38.5984 25.5407 37.9743 23.8816C37.9127 23.7169 37.806 23.5729 37.6664 23.4659C37.5268 23.359 37.36 23.2935 37.1849 23.2769C37.0099 23.2588 36.8333 23.2909 36.6757 23.3694C36.5182 23.448 36.3863 23.5696 36.2953 23.7203C36.1306 23.9959 35.8973 24.2241 35.6182 24.3827C35.339 24.5413 35.0235 24.6247 34.7024 24.625C34.2052 24.625 33.7283 24.4275 33.3766 24.0758C33.025 23.7242 32.8274 23.2473 32.8274 22.75C32.8275 22.4289 32.9107 22.1133 33.0691 21.8339C33.2275 21.5546 33.4556 21.3211 33.7312 21.1562C33.8812 21.0645 34.0023 20.9325 34.0809 20.7752C34.1594 20.6179 34.1921 20.4418 34.1753 20.2668C34.1585 20.0918 34.0928 19.925 33.9858 19.7856C33.8787 19.6461 33.7346 19.5396 33.5699 19.4781C32.4362 19.0517 31.2159 18.9069 30.0139 19.0561C28.8119 19.2052 27.664 19.644 26.6689 20.3346C25.6738 21.0252 24.8613 21.9471 24.301 23.021C23.7408 24.0949 23.4496 25.2887 23.4524 26.5C23.4577 27.8144 23.8065 29.1047 24.4643 30.2427C25.1221 31.3807 26.066 32.3269 27.2024 32.9875V39.625H23.4524V37.7303C23.4524 37.5848 23.4186 37.4412 23.3535 37.3111C23.2884 37.1809 23.1939 37.0676 23.0774 36.9803C21.5051 35.7979 20.2189 34.2769 19.314 32.53C18.4092 30.7831 17.9089 28.855 17.8502 26.8885C17.7915 24.9221 18.1759 22.9676 18.9749 21.1698C19.774 19.372 20.9672 17.777 22.4662 16.5029C23.9653 15.2288 25.7317 14.3083 27.6348 13.8094C29.5378 13.3105 31.5287 13.2461 33.46 13.6209C35.3913 13.9958 37.2136 14.8002 38.7918 15.9748C40.3701 17.1494 41.6639 18.6639 42.5774 20.4062C42.6347 20.5153 42.7129 20.6119 42.8075 20.6908C42.9021 20.7696 43.0113 20.829 43.1288 20.8656C43.2464 20.9022 43.37 20.9153 43.4927 20.9041C43.6153 20.8929 43.7345 20.8577 43.8435 20.8005C43.9526 20.7432 44.0492 20.6651 44.128 20.5705C44.2069 20.4758 44.2663 20.3666 44.3029 20.2491C44.3395 20.1315 44.3526 20.0079 44.3414 19.8852C44.3302 19.7626 44.295 19.6434 44.2378 19.5344C43.2999 17.7479 42.0125 16.1682 40.4521 14.8891C46.9657 17.066 52.6993 21.1024 56.9456 26.5C53.4109 30.9559 48.8702 34.5103 43.6959 36.8716C43.5834 36.9217 43.4819 36.9934 43.3972 37.0828C43.3125 37.1721 43.2462 37.2772 43.2021 37.3922C43.158 37.5072 43.137 37.6297 43.1402 37.7528C43.1435 37.8758 43.1709 37.9971 43.221 38.1095C43.2711 38.222 43.3429 38.3235 43.4322 38.4082C43.5216 38.4929 43.6267 38.5593 43.7417 38.6033C43.8566 38.6474 43.9792 38.6685 44.1022 38.6652C44.2253 38.6619 44.3465 38.6345 44.459 38.5844C50.1391 35.9905 55.0926 32.0372 58.8815 27.0737ZM30.9524 56.5C28.964 56.4978 27.0577 55.7069 25.6516 54.3008C24.2456 52.8948 23.4547 50.9884 23.4524 49H38.4524C38.4502 50.9884 37.6593 52.8948 36.2533 54.3008C34.8472 55.7069 32.9409 56.4978 30.9524 56.5ZM41.2649 42.4375C41.2649 42.6861 41.1662 42.9246 40.9904 43.1004C40.8145 43.2762 40.5761 43.375 40.3274 43.375H21.5774C21.3288 43.375 21.0904 43.2762 20.9145 43.1004C20.7387 42.9246 20.6399 42.6861 20.6399 42.4375C20.6399 42.1889 20.7387 41.9504 20.9145 41.7746C21.0904 41.5988 21.3288 41.5 21.5774 41.5H40.3274C40.5761 41.5 40.8145 41.5988 40.9904 41.7746C41.1662 41.9504 41.2649 42.1889 41.2649 42.4375ZM28.5431 31.5756C27.393 31.0263 26.4636 30.1026 25.9071 28.956C25.3506 27.8094 25.2 26.5078 25.48 25.2644C25.76 24.021 26.4539 22.9095 27.4481 22.1121C28.4424 21.3146 29.6779 20.8784 30.9524 20.875C31.1165 20.875 31.2806 20.8825 31.4428 20.8966C31.0373 21.6104 30.8773 22.4375 30.9873 23.251C31.0973 24.0645 31.4712 24.8195 32.0516 25.4C32.632 25.9805 33.3869 26.3546 34.2004 26.4647C35.0139 26.5748 35.8411 26.415 36.555 26.0097C36.57 26.1719 36.5774 26.3359 36.5774 26.5C36.5731 27.5628 36.269 28.6029 35.7002 29.5007C35.1314 30.3985 34.3209 31.1177 33.3618 31.5756C33.2023 31.6516 33.0675 31.7711 32.9729 31.9204C32.8784 32.0697 32.8279 32.2427 32.8274 32.4194V39.625H29.0774V32.4222C29.0775 32.245 29.0273 32.0714 28.9327 31.9216C28.8381 31.7718 28.703 31.6518 28.5431 31.5756Z" fill="#9D0A0E"/>
<path d="M50.3664 39.2565C50.2868 39.1624 50.1894 39.0849 50.0799 39.0284C49.9703 38.9719 49.8507 38.9375 49.7279 38.9272C49.6051 38.917 49.4814 38.931 49.364 38.9685C49.2466 39.006 49.1377 39.0663 49.0436 39.1459C48.9495 39.2255 48.8719 39.3228 48.8154 39.4324C48.7589 39.5419 48.7246 39.6616 48.7143 39.7844C48.704 39.9072 48.718 40.0309 48.7556 40.1483C48.7931 40.2657 48.8534 40.3746 48.9329 40.4687L51.3976 43.3965C51.477 43.4906 51.5742 43.5682 51.6836 43.6248C51.793 43.6813 51.9124 43.7158 52.0351 43.7262C52.1578 43.7366 52.2814 43.7227 52.3987 43.6854C52.5161 43.6481 52.6249 43.588 52.719 43.5086C52.8132 43.4291 52.8907 43.332 52.9473 43.2226C53.0039 43.1132 53.0383 42.9938 53.0487 42.871C53.0591 42.7483 53.0453 42.6248 53.0079 42.5074C52.9706 42.3901 52.9105 42.2813 52.8311 42.1871L50.3664 39.2565ZM55.9698 34.4875C55.8763 34.4033 55.7668 34.3387 55.6478 34.2978C55.5288 34.2568 55.4027 34.2402 55.2772 34.249C55.1516 34.2578 55.0292 34.2917 54.917 34.3489C54.8049 34.406 54.7054 34.4851 54.6245 34.5815C54.5436 34.6779 54.4829 34.7896 54.4461 34.9099C54.4093 35.0303 54.3971 35.1568 54.4102 35.282C54.4233 35.4071 54.4615 35.5284 54.5225 35.6385C54.5835 35.7486 54.666 35.8453 54.7651 35.9228L57.6714 38.3603C57.8625 38.5132 58.1059 38.5854 58.3495 38.5613C58.5931 38.5372 58.8176 38.4188 58.9751 38.2313C59.1325 38.0439 59.2104 37.8023 59.1921 37.5582C59.1737 37.3141 59.0607 37.0868 58.877 36.925L55.9698 34.4875ZM11.5389 39.2565L9.0742 42.1834C8.91383 42.3735 8.83553 42.6195 8.85654 42.8673C8.87755 43.1151 8.99615 43.3444 9.18623 43.5048C9.37632 43.6652 9.62232 43.7435 9.87014 43.7225C10.1179 43.7014 10.3473 43.5829 10.5076 43.3928L12.9723 40.4687C13.0535 40.3748 13.1153 40.2658 13.154 40.1479C13.1927 40.0299 13.2076 39.9055 13.1978 39.7818C13.1881 39.6581 13.1539 39.5375 13.0972 39.4271C13.0405 39.3167 12.9624 39.2187 12.8675 39.1387C12.7726 39.0587 12.6628 38.9983 12.5444 38.9611C12.426 38.9239 12.3014 38.9105 12.1778 38.9218C12.0542 38.9332 11.9341 38.9689 11.8244 39.027C11.7147 39.0851 11.6177 39.1644 11.5389 39.2603V39.2565ZM5.96545 34.4631L3.19233 36.6043C3.09054 36.6779 3.00459 36.7712 2.93957 36.8787C2.87455 36.9862 2.83179 37.1056 2.81383 37.2299C2.79587 37.3543 2.80308 37.4809 2.83502 37.6024C2.86696 37.7239 2.92298 37.8377 2.99977 37.9371C3.07655 38.0365 3.17253 38.1195 3.282 38.1811C3.39147 38.2426 3.5122 38.2816 3.63702 38.2956C3.76184 38.3097 3.88821 38.2985 4.00862 38.2627C4.12903 38.2269 4.24102 38.1673 4.33795 38.0875L7.11107 35.9462C7.21286 35.8726 7.29881 35.7793 7.36383 35.6718C7.42885 35.5644 7.47161 35.4449 7.48957 35.3206C7.50753 35.1963 7.50032 35.0696 7.46838 34.9481C7.43644 34.8267 7.38042 34.7128 7.30363 34.6134C7.22685 34.514 7.13087 34.4311 7.0214 34.3695C6.91193 34.3079 6.7912 34.2689 6.66638 34.2549C6.54156 34.2409 6.41519 34.2521 6.29478 34.2878C6.17437 34.3236 6.06238 34.3832 5.96545 34.4631Z" fill="#9D0A0E"/>
</svg>
