<svg width="56" height="56" viewBox="0 0 56 56" fill="none" xmlns="http://www.w3.org/2000/svg">
<rect width="56" height="56" rx="28" fill="#9D0A0E"/>
<g clip-path="url(#clip0_6928_595)">
<path d="M31.6948 26.9263L26.3926 24.0252C26.0877 23.8583 25.7274 23.8646 25.4285 24.0416C25.1295 24.2189 24.9512 24.532 24.9512 24.8795V30.632C24.9512 30.9779 25.1285 31.2904 25.4255 31.4678C25.5805 31.5605 25.7525 31.607 25.9248 31.607C26.086 31.6068 26.2446 31.5664 26.3864 31.4896L31.6887 28.6385C31.8432 28.5555 31.9724 28.4323 32.0626 28.2819C32.1528 28.1316 32.2008 27.9597 32.2014 27.7843C32.2021 27.6089 32.1554 27.4366 32.0662 27.2855C31.9771 27.1345 31.8487 27.0104 31.6948 26.9263ZM26.3576 29.9083V25.609L30.3204 27.7773L26.3576 29.9083Z" fill="white"/>
<path d="M39.8234 23.2013L39.8223 23.1904C39.802 22.9972 39.5996 21.2789 38.7643 20.405C37.7988 19.377 36.7041 19.2521 36.1777 19.1923C36.138 19.1879 36.0982 19.1831 36.0585 19.178L36.0166 19.1736C32.8438 18.9429 28.0521 18.9114 28.0042 18.9112L28 18.911L27.9957 18.9112C27.9478 18.9114 23.1561 18.9429 19.9547 19.1736L19.9124 19.178C19.8783 19.1826 19.8408 19.1868 19.8 19.1916C19.2796 19.2516 18.1967 19.3767 17.2284 20.4418C16.4328 21.3064 16.2029 22.9879 16.1792 23.1768L16.1765 23.2013C16.1694 23.2817 16 25.1954 16 27.1165V28.9124C16 30.8335 16.1694 32.7471 16.1765 32.8277L16.1778 32.8398C16.1981 33.0298 16.4003 34.7166 17.2317 35.5909C18.1396 36.5845 19.2875 36.7159 19.9049 36.7866C20.0025 36.7978 20.0865 36.8073 20.1438 36.8174L20.1993 36.8251C22.0313 36.9994 27.7751 37.0852 28.0186 37.0887L28.026 37.0889L28.0333 37.0887C28.0812 37.0885 32.8727 37.0571 36.0456 36.8263L36.0875 36.822C36.1276 36.8166 36.1727 36.8119 36.2221 36.8067C36.7396 36.7518 37.8166 36.6378 38.7715 35.5871C39.5671 34.7223 39.7972 33.0408 39.8207 32.8521L39.8234 32.8275C39.8305 32.747 40.0001 30.8335 40.0001 28.9124V27.1165C39.9999 25.1953 39.8305 23.2819 39.8234 23.2013ZM38.5935 28.9124C38.5935 30.6905 38.4382 32.5217 38.4236 32.6898C38.3639 33.1529 38.1212 34.2167 37.7336 34.6381C37.136 35.2956 36.522 35.3608 36.0738 35.4082C36.0238 35.4133 35.9739 35.419 35.924 35.4251C32.8552 35.647 28.2444 35.681 28.032 35.6823C27.7938 35.6788 22.134 35.5922 20.3579 35.4273C20.2669 35.4124 20.1685 35.4011 20.0649 35.3893C19.5392 35.3291 18.8196 35.2467 18.2663 34.6381L18.2533 34.6242C17.8724 34.2274 17.6368 33.2325 17.5769 32.6953C17.5657 32.5683 17.4064 30.7154 17.4064 28.9124V27.1165C17.4064 25.3404 17.5614 23.5112 17.5764 23.3396C17.6476 22.7941 17.8948 21.7947 18.2663 21.3908C18.8822 20.7133 19.5317 20.6383 19.9613 20.5886C20.0023 20.5838 20.0406 20.5795 20.0759 20.5749C23.1894 20.3518 27.8333 20.3187 28 20.3174C28.1666 20.3185 32.8088 20.3518 35.8947 20.5749C35.9326 20.5797 35.974 20.5844 36.0185 20.5896C36.4603 20.6399 37.1281 20.7161 37.741 21.3697L37.7466 21.3758C38.1275 21.7726 38.3631 22.7848 38.423 23.3328C38.4336 23.4528 38.5935 25.3096 38.5935 27.1165V28.9124Z" fill="white"/>
</g>
<defs>
<clipPath id="clip0_6928_595">
<rect width="24.0001" height="18.1779" fill="white" transform="translate(16 18.911)"/>
</clipPath>
</defs>
</svg>
