<svg width="32" height="32" viewBox="0 0 32 32" fill="none" xmlns="http://www.w3.org/2000/svg">
<rect width="32" height="32" rx="16" fill="#9D0A0E"/>
<g clip-path="url(#clip0_6626_9705)">
<path d="M23.3764 11.3365C22.7988 10.6499 21.7325 10.3699 19.6961 10.3699H12.3038C10.2207 10.3699 9.13636 10.668 8.56098 11.3989C8 12.1116 8 13.1617 8 14.615V17.385C8 20.2005 8.6656 21.6301 12.3038 21.6301H19.6961C21.4621 21.6301 22.4407 21.3829 23.0738 20.777C23.723 20.1557 24 19.1413 24 17.385V14.615C24 13.0823 23.9566 12.0261 23.3764 11.3365ZM18.2721 16.3824L14.9153 18.1368C14.8366 18.178 14.7486 18.1981 14.6599 18.1953C14.5712 18.1926 14.4846 18.1669 14.4087 18.1209C14.3328 18.075 14.27 18.0101 14.2264 17.9328C14.1829 17.8554 14.16 17.7681 14.1601 17.6793V14.1818C14.1601 14.0932 14.1829 14.006 14.2264 13.9288C14.2698 13.8515 14.3325 13.7868 14.4082 13.7408C14.484 13.6947 14.5703 13.669 14.6589 13.666C14.7475 13.6631 14.8354 13.683 14.9141 13.7238L18.2709 15.4669C18.3546 15.5104 18.4249 15.5761 18.474 15.6567C18.523 15.7373 18.549 15.8299 18.5492 15.9243C18.5493 16.0187 18.5235 16.1113 18.4747 16.1921C18.4258 16.2729 18.3557 16.3387 18.2721 16.3824Z" fill="white"/>
</g>
<defs>
<clipPath id="clip0_6626_9705">
<rect width="16" height="16" fill="white" transform="translate(8 8)"/>
</clipPath>
</defs>
</svg>
